<svg xmlns="http://www.w3.org/2000/svg" viewBox="0 0 737.5 737.7">
  <path fill="#caf2fd" d="M358.7 737.6A370 370 0 0 1 44.2 544.3a370 370 0 0 1 9.7-367.6A369.8 369.8 0 0 1 378.9.1a369.8 369.8 0 0 1 314.5 193.5 370 370 0 0 1-9.6 367.3 369.8 369.8 0 0 1-317.6 176.8z"/>
  <path fill="#93c6d7" d="M367.4 727c-34.7-2-70.2-6.3-103-18.5a322.7 322.7 0 0 1-129.6-107.4c-28.4-55.5-45-118.6-41.5-181.5 2.5-31.4 11-62 25.2-90.3 21.4-22.8 33.9-49.4 55.1-72 1.4-1.5 5.9-4.6 7.3-6a306 306 0 0 1 62.3-32c-6-15.9 13.6-51 2.3-60.5-.5-.4-.7-.4-5 .7A253.2 253.2 0 0 0 89.3 263.1a388 388 0 0 0-71.4 185.6c-22-59.7-13-126.3 2.4-186.9 11.5-37.6 32-74 62.5-99.2A382 382 0 0 1 262 96.2c11.7-16.6 27.9-28 45.2-38.2 14-9.9 32-12.4 48.6-14.6 10.4 0 29.4.2 10-4.6a403 403 0 0 0-99.5-20.5c47-13.6 97-9.3 144 1.6 33.5 8 67.5 17.1 95.8 37.3C552.5 84 595.3 123 612 175.4c20 58 30 122 12.3 182.2a250.6 250.6 0 0 1-66 112.5c3.5 12.4 6 60.2 20.4 57.7 2-.4 8.6-5.6 11.5-8.5 48.2-42.8 82-100 101.3-161.3 11-35.5 16.4-73.4 17-110 18 53.2 31 111.1 17.2 167-8.8 50.2-36.5 95.8-70.3 133.3-22 20-39.1 46.3-69 55.4-61.1 20.5-126.3 40.4-191.4 28.8a251 251 0 0 1-83-30.6c-31.4.3-64.1 1.5-83-24-.8-1.3-8.4 5.3-9.2 4-9.2 12.2 6.5 31.8 19 40a377 377 0 0 0 249 88.5c-38.4 14.4-79.7 17.2-120.3 16.5zm77.8-281.3c-2 .9-6.7 3.9-8.7 4.4-6.5 1.8-6 9 4.7 7 15 1.5 11.8-1.2 4-11.4zm-291.4 4.6c16-1.2-.5-16.4.4-8.5 0 1.3-1 6.8-.4 8.5zm98-7.8c-12 5.8 11.7 5.6 0 0zm232-117.2c-1.3-33.4-13.6-67-32.6-93.8-7.6 9-16.3 17-26 23.6a131.6 131.6 0 0 1 32.6 73.7c6.8-3.3 24.5-1.9 26-3.5zm-48.5-3.3c-3.9-17-13-32.4-26.2-44 .5 12-5 21-.2 31.7 1 2 5 7.4 6.6 9.3 5.3.1 17.7 5.7 19.8 3zm-40-6.3c14.7 3.8 5.6-15.6 8-24.2-2.6-6 5.8-27.9-4.7-23.5-7.1 3.5-22 0-17.8 12.3 2.7 9.8-5.8 26.7 5 31.4 3.6.2 6 5.6 9.5 4zm173-25.8c7.3 2 7.7 4 6.9-2-.6-4.3-1.6-16.5-2-17.6A252.8 252.8 0 0 0 467.9 93 215 215 0 0 0 447 79c10 21.6 24 42 25.6 66.5 4.4 10-.2 21.6 2.2 31.3a11 11 0 0 0 2 2.7 180 180 0 0 1 46.2 136c13.9-3.7 32-16.1 45.2-25.5zm-194 10.3c-3.8-3.2-9.5-6.9-10.8-6-3.5 2.2 4.6 17.8 11 11.4zM359.7 288c4.8-15.9-7-14.6-18.8-15.2-7-1.7-5 20-1.4 22.5 10 3 25.9 13.3 20.2-5.6zm-29 5.7c-.6-1.5.8-2.8 0-3-1 0-5.1.7-6.4 1.1-1.8.6 2.3 3.5 6.4 2zm-41.6-4c6-2.3-10-17.4-8-15.2-13.2-4 1.3 19.8 8 15.3zm15.5-2c2.2-4-10.7-10.8-8.6-18.6-8.8 2-9.4 7.4-2.5 13.4 2.9 2.8 6.6 8.4 11 5.3zm15.2-3c18.8-9.2 12-38.2-1.4-49.5-5.7-8.6-5.7-1.2-11 .3 5.2-11.8-9-21-19.4-15.4-14.8 3.6-2.8 6-2.4 13.1-3.1 12.8-15.5 3.6-20 7-4.6 7 2.8 14.5-3 21 2.2 12.2 22.3 11.5 29.9 4.7 2.6-7.4-12.3-10.2-13-12.7 6.3-1 19.7 7.2 17.3 7.4 4.2-12.3-17.1-6.9-10.2-11.5 4.8-.4 17.5-8 18.2-4-7-.4-9.2 13.1-2 8.7 7-6.8 14.3 9.6 17.2.8 8.5-7.5-1 9.6.8 13.7-2 6.6-5.4-13.3-12.7-11.5-16.8 4.4-3 32.4 11.7 28zm45.6-9.3c3 .7 9.3 4 10.8 5.2 2.9 2.4 1.6-7.8-1.8-8.9-1-.3-7-.4-9.2.7-1.3.7 1.4 2.7.2 3zm-124.4-6c7.6 7 25.8 9.4 31.3 5-9.8-3-6.6-17.9-11-16.8-1.4.3-9 4.8-14 7.7-1.2 1-4.5 3-6.3 4zm129.4-2.8c56.4-3.6 103.4-56.6 100-113-1.3-28.4-12.6-59-36.3-76-9.2-.4-21.3-8.6-6-6.5-2.2-3.2-12-8.8-17.7-11.7-50.7-27.3-120-5.7-146 45.6a106.1 106.1 0 0 0-13 58.6c9.5-4 21.5-17 30-4.9 8.6 10 5.8 28-8.6 29.8-9 2.8-16.7 13.4-8.2 21.4 3 7.4 10.4 16.6 17.8 7.5 10-6 25.2-4.4 30.4 6.8a54.1 54.1 0 0 1 24.2 40.2c10.9 2.5 22.2 3 33.4 2.2zm-93.7-29.4c10.4-4.5-3.4-9.8-7.4-13-11-6.6-21.2-21.4-10.5-32.8 5-10 23.3-5.2 22-18.4 1-8-6.4-20-14.7-11.9-18.2 8.4-37.7 31.1-24.1 51a110 110 0 0 0 33.5 25.6z"/>
  <path fill="#fefefe" d="M258.2 139.3 278.7 92l45.5-31.2 142.2 142.7 17.9 11.4 20.2-12 14.7-4.4 8.4 2 7 3.5-2.3 15 2 3 3.2.6 2-12.6 7.5-9.2 7 3.4 2.6 9.7-1.3 10.3-10.4 15.4-20.3 11-5.5 8.3-30.4-3.7-11.4-25.3-20.5-9c-47 22.2-93.4 45.6-141.2 66.5l-27.4 4.5-8-2-5.8-13.5-12.5-9.2 2-33z"/>
  <path fill="#c9c9c9" d="m285.2 230.4-9.3 10c-13.6-12.2-35.6-17.7-40.5-36l-.4-2.6-.3-2.4v-8c.5-3.4 2.2-11 8.5-18.8l2-2.2 2-2.2-.1-1.2-.2-2.4a292 292 0 0 1 15.8-69.5l36.4-33 29-14.4c7-.7 40.6-2.8 45.3-3 3.7.8 41.7 12.2 39 11.2 0 0 18.9 14.8 24.9 18.7l25.8 30.1 13.2 57.2-11 41.2 19 11.5-6.4 15-21.2-9.7-38 37.1-11.3 5-1.4 56.2-12.5-.3-15-8-.6-39.5-13.7.8-4 32.1c.4.2-16.5 1.4-26-9.2-5.2-5.8 3.8-38.8-6.7-51.6-31.2-38.4-40.4-21.5-50.3-19.3-6.5 1.5 3.3 5 8 7.1zm-12-81.7c2.4-1.8 2.9-4.4 3.2-7a7.9 7.9 0 0 0-3.3-5.8 11 11 0 0 0-5.7-1.4l-1 .2c-1.7.5-6 2.3-6 8.8.2 1.6 1 3.6 3.4 5.5 1.1.5 2.2 1 3.5 1.3 2.2.3 4-.5 6-1.6zm8.5-20.4 1.3-.5c.7-.3 1.4-.7 2-1.4.5-.6 1-1.1 1.3-1.7l.4-.6.4-.7 1.5-3.3 1.5-3.4.9-1.8.9-1.8 1-1.6 1-1.6 1-1.5 1-1.4 1.6-2 1.7-2 2.5-2.4 2.4-2.5 1.8-1.4 1.9-1.5 1.3-1 1.4-.9 1.8-1 1.8-1 2.4-1.3 2.5-1.3 2.4-1.2 2.4-1 1-.9.8-.7c.5-.5 1-1 1.4-1.8.5-1.1.9-2.3 1.2-3.5V77c-.1-1-.5-1.8-1-2.7-.2-1-1-1.8-1.6-2.7-1-.8-2.2-1.5-3.4-2a8.5 8.5 0 0 0-4-.7c-.8 0-1.5.3-2.2.4l-1.7.7-1.7.7-3.5 1.8-3.5 1.8-1.7 1-1.7 1-2.1 1.3-2.2 1.3-1.7 1.3-1.7 1.3-2 1.7-2 1.7-2.6 2.6-2.7 2.7-1.3 1.6-1.4 1.6-1.2 1.5-1.2 1.5-.8 1.1-.8 1.2-1.5 2.4-1.5 2.3-1.8 3.7-1.8 3.7-1 2.2-1 2.3-.4 1.2a9.7 9.7 0 0 0-.5 3.7l.2 1.2c.1 1 .4 1.6.8 2.4.3 1 1 1.7 1.8 2.4.7 1 1.4 1.3 2.4 1.7.6.5 1.3.7 2 .8.9.3 1.7.2 2.6.2 1.1 0 1.9-.2 2.9-.6z"/>
  <path fill="#fcbd44" d="m502.2 188.8-18.6-20 4.2-1.4-4.2-9.5 2-2.5-1-13.9c6.4 7 12.7 14 19 21.2-1.4 0-8.1 1.7-2 8.4 2 2.3 1.6 4.1-2.7 5-2 .3 2.2 6.3 3.4 12.7zm21-19-2.3 13-10-26.5 4.8-1.4-1.2-10.6h5l4-13.8 8.8 25.8-5.8 1 1.7 9.4c-4.8 4 1.3-.9-5 3zM139.6 529.3l-4.3-34-1.7-27c.5-.5 4-9.6 8.7-13.3l18-4.5 6.5-2.6-14.4-14.3c-2.7-3-16.4-44.2-20-49.4l-17-81.5-4.5-5.4-5-25.4 14-12.2 42.7-.6 45.3 7 27.7 2.6a37 37 0 0 1 19.7 9.8h18.6l7.8 11.6 9.3 1.3 17.5-3.5 23 8.5 47.3 14.6 15 7.6c20.5.8 40.6 5.2 60.4 9.4 11.9.3 26.7-1 39-3.2 30.7-5.3 47-17.3 73.6-33.3l2.8-2.7c11.3 16.6 6-6.4 6.2 29.7l-7.8 55c.4 15-1.8 53.6-1.8 53.6-.4 8.3-6.3 12.6-10 20l-9.3 4.2.6 3.2c11.2 3.4 8.2 11 10.6 20.8 6.3 5.2 4.7 19 7.8 27l10 19.7c5 1.3 5 10.7 7.7 15l3.6 1.7 17-3.2 15.6 11.3 20.3 23.2-4.3 15-37.7 24-52 12.5-79.1-1.4-31.3-7-7-4.4-21.3 2.2-47.3-9-36.8-3-38.6 1.8-37 8.3-9-6.2-10.1-25-10.6 4.6s9 28.7 8.8 29.2c.8 2.5-9.2 16.6-8.3 19.1l-25.1 19.8-17.5-13.5-17.7-42zm272-71-12-1.6 6.4 5.5 3.8-1zm102.4-2-15 .7h-40l-11.4-6.4-1.6-21.4-9.5.7-2.2 23.5-4.7 4.4 6.3 1 61.5-.2 10.5 9.7 3.7-7.6zm-261.8-14.2L247 446l8.9.3z"/>
  <path fill="#fefefe" d="m409.7 105.8 8-16.6 9.8-3.5 11.2 62-25-16.7zm-32.4 72.6 22 1.7 19-6.7-6.5 14.5-24.6 5zm-22.5-76.8 6-7 7.9-2.5 12 69-25.1-15.7z"/>
  <path fill="#fcbd44" d="m544.2 183.7-3.8 5.7c.5-9.3 1.6-18.4 2.7-27.6l4.6 3 4.3-11.6 3.3 1.6 9.7-10.5-4.2 27.7-4.6-2.3-4 10c-1.7 1.5-4.2-2.7-5.7-1.3z"/>
  <path fill="#040303" d="m186.7 653-3.3-1.9-1.3-1.4-1.3-1.7-1.2-1.7-2.6-3.4-2.6-3.4-2.8-5.7-2.7-5.7-2-4-1.7-4-1.8-4-1.7-4-1.7-4-1.6-3.9-1.5-3.7-1.5-3.8-1.2-3.3-1.2-3.2-1.3-3.6-1.3-3.6-1.2-3.8-1.3-3.8-1-3.3-1-3.4-1-3.3c-.8-2.3-1.4-4.7-2-7l-1-4-.8-2.8c-.7-2.5-1.2-5-1.8-7.7l-1-4.8-.8-3.5-.6-3-.5-3-.7-3.6-.6-3.5-.6-3.9-.5-3.8-.4-2.8-.4-2.8-.7-5.7-.6-5.7-.5-5.6-.5-5.7-.4-6.6-.4-6.5v-1.3l-.1-1.3.6-2.5.7-2.5.5-2 .6-2v-.3l.3-.4 2-2.5 2.3-2.6.4-.3.5-.4 3.3-2 3.3-2 6-1.6 6.3-1.5 1.6-.2h1.6v-.6l-1-.4-1-.5-2.6-2.3-2.4-2.4-2-4-2-4-2-4-1.7-3.8-1.2-2.6-1.2-2.7-1.4-3.3-1.4-3.4-.8-2.2-.8-2-.8-2-.7-2-1.2-3.2-1.2-3.2-.6-1.6-.5-1.6-1.3-3.7-1.3-3.8-.5-1.8-1.2-4.6-.6-2.2c-.2-.5-.7-3-1-3.7l-.3-2-.4-1.8-.5-2.8c-.5-2.3-.9-4.8-1.2-7.2l-1-6.2-1-6.2-1.1-6.2-1.2-6.2-1.5-6.2-1.4-6.2-1-3.4-.8-3.4-1.1-3.8-1.2-3.8-1-3-1-3-1.1-3.9-1.3-3.7-1-2.8-1-2.7-1-2.6-1-2.7-.7-2c-.4-1.3-.8-2.6-1-4l-.1-2-.4-3.3-.4-3.3v-1l1-2.2 1-2.2.5-1.3.7-1.4 2-1.7 2-1.8 1.2-1 1.2-1 1-.3 1-.3 6-1.5 5.8-1.4H143l5.5.1 5.5.2 1.6.3 1.5.3 2.9.7 2.9.8 3.6-.6 3.5-.5h.6l.6.1 3.2.3 3.3.2 5.3.6 5.3.5 4.3.6 4.3.5.9.3.9.3 3.3 1.2 3.2 1.1h2.8l2.8-.2h2.8l2 .2 2 .3 8.3 1.6 8.3 1.6 2 .4 1.8.5 1 .3 1 .4 1.6.7 1.7.7 2.6 1.1 2.5 1 1.4.6 1.3.6 2.2 1.7 2.3 1.7 1.3-.5 1.4-.4h2.6l2.6.2 3.9.2 3.8.2.2-.2-.2-.4-.3-.4h-1l-1-.2-1.1-.3-1.2-.4-1-.4-1-.5-1.2-.7-1.2-.8-1-1-.8-1-.6-1-.7-1-.3-1-.3-1-.2-1.4-.2-1.4v-.9l.2-.9.3-1.2.3-1.2 1-1.7.9-1.8-.5-1-.5-1-.2-1.5-.2-1.5v-3.5l.2-1.5.3-1.5.4-1.4.5-1.3.6-1.6.6-1.5.4-.6.4-.7v-.3l-1.4-.9-1.4-.8-1.7-1-1.7-1.3-1.8-1.3-2-1.4-1.5-1.3-1.6-1.3-2.8-2.3-2.8-2.3-4.3-4.2-2.4-2.5-1.5-2.3-1.1-2-1.1-3-.7-2.6-.6-4.5-.3-4.2.3-4.8.6-3.3 1-3.4 1.8-3.8 1.6-3.2 1-1.5 1-1.4 1.2-1.5 2-2.2 2-2.2-.1-4a92 92 0 0 0-.5-5.5c-.4-2-.3-4-.2-6l.3-6.2c0-2.4.6-4.8 1-7l.9-4.8 1-3.8 1-3.7.8-3.2 2.2-6.7 1.6-4.2 1.9-4.3 3.6-7.4 2.9-5 4.3-6.6 3.8-5 2.8-3.5 3.4-3.9 3-3 3.3-3.2 3.8-3.4 5-4 3.6-2.6 5-3.3 3.2-2 4.3-2.3 3.9-2 3.8-1.6 6-2.4 4.6-1.6 4-1.3 3.3-.8 3-.8 5.8-1 3.4-.6 3.3-.5 5.6-.6h15l5 .4 4.6.6 3.4.6 5.6 1 6.2 1.7 3.7 1.2 3.7 1.2 5.3 2 4 1.8 5 2.4 4.4 2.4 4.3 2.6 5 3.3 4.3 3.3L436 68l3.6 3.2 6 6 3.8 4.3 3 3.6 3.7 4.8 3.9 6 2.8 4.8 3.3 6.4 2.2 5 1.5 3.6 2 5.4 1.5 5.3 1 4 .8 3.4.6 3.3.6 4.4.5 3.5.4 4.3.2 8-.2 8.2-.4 3.8-.5 3.8-.7 5.3-.7 3.4-1 4.5-1.4 4.6-1.7 5.5-2 5v.5l-.1.4 1.6 1.3 3 2.5a37 37 0 0 0 2.7 2l2.4 1.4 1.8 1 2.7 1.4 1.9 1h.5l1-.9 1-.9 1.4-1 1.5-1 2-1.2 2.3-1.2h.5l.5-.2 1.3-1.2 1.2-1 1-.9c.7-.6 1.6-1 2.4-1.4l1.4-.7 1.8-.5 2.5-.3 1.6.2 1.6.3.7-.6.6-.5.9-.5.8-.6.8-.4.9-.4 2.9-1 1.4-.4c1-.4 2-.4 3-.4h1.7l3 .5 1 .4 1 .3c1 .5 2 1 3 1.7 1 .6 1.7 1.5 2.4 2.4l.7 1.2c.6 1 1 2.3 1.3 3.5l.6 3.5v3.3l-.4 1.5-.4 1.5-.3.8-.4.8-.8 1-.7 1v.6l.3.6.4.7h1l1-.5 1-.3v-3.6l.2-3.6v-1.3c0-1 .4-1.9.6-2.8.2-1 .7-2 1-3 .3-1 .8-2 1.5-2.8.8-1.2 2-2.3 3-3.3l1.2-.6 1.2-.5c1.3-.4 2.6-.4 3.9-.2l.7.3.6.4.8.5.7.5.8 1.1.7 1.1.6 1.4.6 1.5.6 1.9.4 2 .4 2c.2 1.4.2 2.8.2 4.2l-.1 1.8-.1 1.7-.3 1.5-.2 1.2-.2 1-.2 1.5-.7 2.7-1 2.6-1.2 2.6-1.1 2.2-.6 1-1 1.2-1 1.2-1 1c-.3.4-1.7 1.5-2 1.6l-1 .6-1.8 1.3-2 1.2-1.5.8-1.6.8-1.7.6-1.8.5-1.2 1.2-1.3 1.2-1 .7-1.1.7-1 .5-1 .5-1.7.6-1.8.6-.2.1-.1.2-.3.8-.3.7-.6 1-.6 1-1 .7-1 .7-1.6.8-1.6.8-1 .2-1 .3h-1l-1.2.2-1.4-.2-1.3-.2-1.6.2-1.6.3-2.5.3-2.5.2h-3.5l-1.2-.5-1.3-.3-1.1-.5-3.2-1.7-2.1-1-1.3-1-1.4-.8-1-1-1.2-1-1-1.5-1-1.3-.5-1-.5-1-1-2.6-.3-.2-.4-.2-1-1.2-1-1.2-.6-1.5-.7-1.5-.4-1.5-.4-1.6-.2-1.8V233h-.2l-.2-.3-2.2-.8-2.3-.9-2.4-1-2.4-1.3-1.6-.9-1.7-1-3-1.8-3-1.9h-.2l-.2.1-.6 1-.5.7-2 2.5-1.8 2.5-2.5 3-2.5 3-3.2 3.1-3 3.2-2.6 2.2-2.5 2.2-2.4 2-2.3 1.8-1.8 1.3-1.8 1.2-2 1.4-2 1.4-2 1.3-2.1 1.2-1.7 1-1.7 1-3.2 1.5-3.2 1.6-.1 10.7-.1 10.6v32.9l.2.1 2.5.6 2.5.6 4 1 4 1 4.9.8 4.8 1 1.6.2 1.6.3 3.7.5 3.8.4 1 .3 1 .2 2.5.7 2.4.8 1.8.4 1.8.4.8.2.8.2 1.2.6 1 .5.9-.3.8-.3.6-.2.6-.3 1.6-.2 1.6-.2 3.3-.6 3.2-.6h6l3-.2 3-.2 5.8-.7c2.6-.3 5.2-.8 7.8-1.3l3.3-.7c2.2-.4 4.4-1 6.6-1.6l3.3-.9 2.8-.4 3-.4h.6l.7-.3 1.8-1 1.8-1 1.9-1 2-1 2-1 2-.9 3.6-1.8 3.7-1.8 2.9-1.6 2.8-1.6 2.6-1.6 2.6-1.6 3.6-2.4 3.7-2.5 2.8-2 2.8-2 3.3-2 3.3-2 1.7-1 1.7-1.2c.6-.4 1-.5 1.5-.7l2.5-.3c1-.2 2-.3 3 0l.6.1 1.3 1.4 1.6 2.1.3.8v15l-.3 2.1-.3 2.1-.5 3-.5 3-1.2 7-1.2 7.2-.7 4.3-.6 4.3c-.3 1.1-.4 2.3-.5 3.4l-.6 4.1-.5 4.2-.7 5.8-.6 5.7-.5 5.3-.5 5.3-.4 6-.4 6.1-.2 4.6-.1 4.6V406l-.1 11.8-.3 1.8-.2 2-.5 3-.5 3-.2 2-.3 1.7-.4 1.4-.4 1.4-1.8 3.8-2 3.8-.5 1-.6.8-2.5 2.6-2.4 2.5-1 .6-1 .7-3 1.3-3 1.4v.5l1.3.5 1.2.6 2 1.8 1.9 2 .4.8.4 1 1 2.3 1.3 2.4.4 1.8.4 2 1.2 4.6 1.2 4.8 1.5 5 1.5 5.2 1.6 4.5 1.6 4.6 1.8 4.5 1.7 4.4 1.8 4.1 1.8 4.1.6 1.2.6 1.2 1.6 3.4 1.6 3.3 1 1.7 1 1.7 1.3 2.5 1.3 2.6.8 1.3.8 1.3.8 1.3.8 1.3h.2l1.3-.6 1.3-.6 3.5-.6 3.5-.7.8-.3.8-.3 3.5.1 3.4.2 3 .7 3 .8.2.1.2.1 2 1.5 1.9 1.4 1.4 1 1.3 1 2.6 3 2.5 2.7 5.5 5.5 5.5 5.6 2.2 2 2.2 2 2 3.1 1.9 3.3.2.5.2.6.2 3.2c.8 3.7-2 10.4-2.7 11l-.6.7-3.1 3.6-3.1 3.7-3.5 2.4-3.4 2.4-3.3 2.2-3.4 2.1-3.8 2.2-3.7 2.1-3.5 1.8-3.6 1.7-3.4 1.6-3.4 1.5-4.3 1.6-4.2 1.7-1 .2-3.7.4c-1.7.3-3.4.3-5.1.5l-3 1.6-2.8 1.6-.7.3c-1.1.5-2.3.7-3.5 1l-2.8.6-3.7.8-3.8.7-3.8.5-3.7.6-2.7.3-5.6.7-4 .3-4 .3-5.5.2-5.4.1-3.1-.5-3.2-.5-1.8-.3-1.8-.4h-1.3l-4 .8-4.2.8h-2.1l-2.2-.2-6.2-.4-6.1-.4-2.7-.2-2.6-.3-2-.6-2.2-.5-3.2-1h-1.2l-3 .3-3 .3-5.2-.7-5.1-.7-3.4-.4-3.3-.5-2.7-.4-2.6-.4-5.6-1.8-5.7-1.9-1.2-.7-1.3-.8-1.5-1-1.6-1-1.2.7-1.3.6-.8.1-1 .2h-6.2l-6.2.2-4-.7-4-.7-5.3-.8-5.3-.9-4-.6-3.8-.7h-1.3l-1.3-.3-5.6-.9-5.6-.8h-.8l-1-.2-2.4-.8-2.5-.7-1.4-.4-1.5-.5-1.2-.3-1.3-.4-1.8.1-1.7.1-2.5.2-2.6.3-4.6-.5-4.6-.5-4.2-.3-4.3-.3-2.4-.6-2.4-.6-2.4-.5-2.5-.6h-.5l-.6-.3-1 .2-1.1.3-4 .7-4 .7h-3.6l-6.8.4-6.7.3-1.2.1-1 .1-3-.2-2.8-.3H287l-1.7-.2-1.7.6-1.7.7-2.1 1-2.2 1-3.7.7-3.6.8-4 1.1-3.7 1.1-1.4.5-1.3.5-2.4.3-2.4.2-2.4.3-2.4.3-3-.7-2.8-.8-.5-.2-.5-.2-2.6-1.7-2.5-1.7-.3-.3-.3-.2-2.7-4.2-2.8-4-1.4-4-1.4-4-1.2-3.7-1.2-3.6-.1-.6-.2-.7h-.4l-2.4 1.3-2.3 1.4-.1.2-.1.2 1.3 4 1.3 3.8 1.5 4 1.4 3.8.6 3.4.5 3.3.4 2 .4 2.2-.2 1-.1 1.2-.3 3-.4 2.8-.8 2.3-1 2.3-.2 1.3-.4 1.2-1 1.2-1 1.3-1.7 2.4-2.1 3.1-2.5 2.6-2 2-2.4 2.5-2.5 2.6-2.6 3-2.6 3.2c-.1.2-7 5.1-8.1 5.5h-5.2c-2 0-3.5-1.2-5.1-2zm11.5-7.7 2.6-1.7c1.5-.9 2.5-2.3 3.7-3.6l2.7-3 6-5.6c1-1 2.2-1.9 3.3-2.8 0 0 4.6-5.8 4.9-6.6l1-2.7 1-2.7.4-3.2.4-3.2-.3-1.6-.4-1.6-.4-2.7-.5-2.7-.1-.3-.2-.3-2.3-6.4-2.4-6.5-1.1-3.4-1.1-3.4v-.4l2.3-.9 2.3-.9 2.7-1.6 2.7-1.6 1.3-.7 1.3-.7.8-.6.8-.6h.3l.2.5v.5l1.3 4 1 4 2.4 6.5 2.2 6.7 2 3 1.9 3 .7.8a17 17 0 0 0 9 4.2c2.4 0 4.7-.1 7-.6l4-1.2 4.2-1.2 3.7-.8 3.7-1 1.4-.2 1.4-.2 3.4-1.4 3.4-1.4.6-.4.5-.5.8.3.8.3 3.9.4 3.8.4h1.2l1.2-.3 4.7-.2 4.7-.3h4l4-.2 3.5-.6 3.4-.6 1.3-.8 1.2-.8 1.8 1 1.8.8 4 1 3.9 1 4 .1 3.8.3 4.7.5 4.8.5 2.8-.3 2.8-.3h1.5l.8-.3.8-.4 1 .6 1 .6 4.3 1.2 4.2 1.2 1 .1.9.1 4.5.7 4.6.7 3 .4 3 .4 5.8 1 5.8 1 3.2.4 3.2.5 3.3.6 3.3.5h8.4l2.3-.3 1-.3.8-.3 2-1.2 2-1 .5.2.4.3.9.8.9.8 2.7 1.7 2.8 1.7 1 .4 1.3.4 3.3 1 3.3 1 4.5.7 4.6.7 6.3.8 6.4.8 3.3-.3 3.4-.4 3.7 1 3.7 1.1 1.4.2 1.4.1 7 .5 7 .5 2.8.1h2.7l3.5-.6 3.5-.7.5-.5.6-.4h.3l1 .5.8.4 1.6.4 1.6.3 2.7.4 2.7.5 5.9-.2 5.9-.2 3.6-.3 3.6-.3c1.3-.2 4-.6 7.6-.8l3.9-.6 8.6-1.4 2.9-.6 2.9-.6c1.2-.3 2.4-.5 3.5-1l.6-.4 2.3-1.2c1-.5 2.2-1.1 3.2-1.9h2.2l1.3-.2h1.3l2.3-.4 2.4-.2 2.3-1 2.4-.8 1.3-.5 1.3-.4 3.4-1.5 3.5-1.4 3-1.5c1-.3 6.5-3 7.3-3.6 1-.4 3-1.7 4.5-2.5l2.2-1.3 2-1.4 1.7-1 1.6-.9 1.2-.8 1-.8 2.4-1.6 2.3-1.6 1-1.3 1.3-1.3 1.4-1.6 1.5-1.6c1.3-2.5 2-5.4 2-8.3v-2.6l-1.5-2.7-1.5-2.7-5-5.2-5.1-5-2.2-2.6-2.2-2.4-1-1.2-1.2-1-2-2.5-2-2.4-1.3-1-1.4-.9-1.2-1-1.2-.8-2.5-.8-2.6-.8h-5l-3.3.8-3.5.8-3.2 1.4-3.2 1.5h-.8l-2.3-4-2.3-3.9-2.3-4.5-2.4-4.6-2.4-4.8-2.3-4.9-2-4.9-2.1-4.9-1.5-3.9-1.5-3.9-1.6-4.6-1.6-4.7-1.4-4.9-1.4-4.8-1.2-4.8-1.2-4.8-.4-2-.4-2-1.4-2.7-1.4-2.8-1.5-1.3-1.4-1.4-2-.8-2-.8h-3.1l-3.2-.3c-5 .9-10.1 1.6-15.2 2.3l-5.6 2-3 2.6c-.6.7-1 1.6-1.5 2.5l-.7 1.4c-.4 1.8-.3 5.6-.3 5.8l.2 1.6c9.5 42.5 13.5 53.5 22.8 75l1.3 3.1 1.3 3.2h-.1l-.2.2-2.4.3-2.3.4h-.8l-.7.2-.3-.6-.2-.5-1.6-4c-9.7-23-17-47.6-22.4-74.8l-.3-1.8-.2-1.6-1.2-2.9-1.3-2.9-1.5-1.6-1.4-1.6-2-1-2-1.2-3.2-.6-3.2-.5h-2l-2 .2-6.1.1-6.2.2-2.8.6-2.8.7-.7.3-.6.4-.7-.4-.7-.3-3-.6-3-.7-7-.2h-7l-4.2-.3h-4.3l-3.6-.3-3.6-.2h-3l-2.7-.2-3.4.5-3.4.6-1.2.2-1.1.3-1.5.7-1.4.8-1.5.8-1.4 1-1.3 1.1-1.2 1.3-1.5-1.5-1.5-1.5-2.6-1.7-2.7-1.7-1-.4-.8-.4-4-1-3.7-1-1-.2-.8-.2-3.2-.3-3.2-.2-11.1-.8-11.1-.8-3.3-.3-3.3-.2h-1.5l-1.5.2-2.6.3-2.5.3-.5.3-.4.2h-.5l-.7-.4-.7-.4-3.5-.9-3.6-.8-6.2-.4-6.2-.5-7.2-.3-3.6.4-3.6.5-1.2.5-1.2.5h-.4l-1.1-.6-1.2-.7-3.7-.9-3.7-.8-5-.2-5-.3h-4l-4-.3-4 .6-3.7.5-.7.3-.7.4h-.5l-.6-.4-.5-.3-4-.8-4-.8-10.6-.2h-10.6l-4.2.6-4.1.8-2.5 1.2-2.4 1.2-.7.6-.6.5-2.4-1-2.3-1.2-.8-.3-.8-.2-1.4-.3-1.3-.2-4-.6-3.7-.6h-5.6l-8.1.3-8.1.4-7 .4-6.7.4-6.7.5-6.8.5-2 .4-2 .5-2.6.7-2.6.7-2.7 1.7-2.7 1.7-1.8 2.2-1.8 2.2-1 3-.8 3v6.5l.3 3v3l.4 3.7.2 3.6.3 3.8.4 3.8.2 2.7.3 2.6.7 6 .7 6 .5 3.8.6 3.7.3 2.1.4 2.1.6 3.5.6 3.5.6 3 .6 2.8 1 5.4 1.3 5.3 2 8 1.6 5.7 2.8 9.5 1.2 3.7 1.5 4.6 1.5 4.5 1.6 4.3 1.6 4.4 1.4 3.6 1.3 3.6 1.2 3 1.3 3 1.5 3.5 1.5 3.6 2 4.4 2 4.4 1.8 4 2 4.1 1.2 2.5 1.2 2.5 1.4 1.8 1.4 2 1.7 2a9 9 0 0 0 2.6 3l2.8 1.5c1.2.9 2.4.9 3.8 1l2.2.1c1.4 0 2.5-1 3.7-1.7zm-6.8-23.3-.2-.5-2-4.6-2.1-4.7c-19.4-41.3-26.9-86-30.1-131l-.2-4.6-.1-4.5-.1-2.2v-2.2l.3-.2h.3l4.7-.5 4.6-.4 4.7-.4 4.8-.4 3.2-.3 3.3-.2 5-.3 5.3-.4 5-.2 4.9-.3 1.7.1 1.8.1 1.3.3 1.3.4 1.3.6 1.3.7.9.8.9.8.7 1 .6.8.5 1 .5.7.4 1.1.5 1 .4 1.7.4 1.7.2 1.7.3 1.8v5.4l.2 5.3.4 8 .5 8 .4 4.8.4 4.8v1.6l.3 1.6.5 4.8.6 4.7.6 4.4.7 4.4.2 1.3.3 1.4.2 1.7.3 1.8v7.9l-.2 1.6-.3 1.2-.3 1.1-.5 1-.4 1-.8 1.2-.8 1.2-1 1-1 .7-.7.6-1 .5-1 .4-.8.3-2 .6-2.1.6-7.4 2.4-7.4 2.5-.7.3-.8.4v.5l1 3.5 1 3.4 1.6 4.3 1.4 4.3 1 3 1.2 3.1 1.3 3.4 1.2 3.4 1.3 3.2 1.3 3.2.8 2 .8 1.8v.2l-1.2 1-1.2.7-2.8 2-2.8 2-3 2.4-3.1 2.4-1 1-1 .7h-.2zm-2.5-85.2 2-.5 4.3-.9 4.4-.8.2-.2v-.2l-.1-1.8-.3-1.8c-1.7-12-3-24-3.5-36h-.2l-.1-.2-2 .1-1.8.2-5 .6-5 .6-.3.1-.4.2v1.7l.2 1.7a401 401 0 0 0 4.2 34.5l.2 1.4.3 1.5.2.2.2.2h.6zm326 67-.3-.7-1.8-4.3c-1.5-3.5-3.1-7-4.5-10.6l-1.4-3.3-1.2-2.8-1.2-2.8-5.5-14.6-2-5.3-2.2-6.8-2.2-6.8-1.5-4.7c-2-6.5-4-13-5.6-19.5l-1-3.8-1.4-5.6-1.3-5.6-.7-3.3-2.3-10.8-.8-4.6-1-6-1.1-6.2-.1-1-.1-1 3-.2h3.2l4.9-.2h5.2l.5 3 .5 3a520 520 0 0 0 27.2 90.5l.7 1.5.2.3.3.3h1.8l1.9-.2 2.5-.3 2.4-.4 5-.5 5-.6 2-.4 2-.4h.6l.5.1 3.5 7.4 2 3.8 2.9 5.6 2.9 5.2 2.9 5.2 1.7 3v.4l-2.3.5-3.2.7-5.5.8-8.4 1.3-9.2.7-8.1.7h-4.4l-4.5.2zm-21.7.6h-.4l-7-.5-7-.4h-1.4l-1.6-.3h-.1l-.1-.2-.6-1.6-.5-1.5-4-11.2-3.5-10.4-3.6-11.3-.2-.6-.2-.5h-.3l-.3-.3-6-.4-6-.5-.1.2-.2.2.3 1 .2 1 3 10.3 3.6 11.2 3.5 10.4.5 1.3.4 1.3v.2h-.8l-5.5-.7-5.4-.6-4.6-.6-4.7-.6-.2-.3-.2-.4-1-3-.8-3-1-3.6-1.2-3.5-1.5-5.4-1.5-5.5-.7-2.7-1-3-2.1-8.8-1.4-5.6-1-5c-2-8.2-5.3-24-7.8-40.8l-.6-4.3-.7-4.8-.6-4.8-.3-2.7-.3-2.7-.1-2.8-.1-2.8.2-1.5.2-1.4.3-1.4.3-1.3.5-1.2.6-1 .7-.9.7-.8.8-.5.8-.5 1-.3.9-.4h1.3l1.2-.2 4 .2 4 .2 7 .2 7 .3 6.3.1 6 .2.2.1.2.1.2 2 .3 2 .7 4.7.7 4.6.8 4.7.8 4.8 1 5 1 5c4 19.2 6.6 29 11.7 45.7 1 4 2.5 7.8 3.7 11.7l3.7 10.7c1 3.4 2.4 6.7 3.6 10 1.4 4 3 7.8 4.5 11.6l2.5 6.2.4 1 .4.8h-.1l-.1.2h-2.8zm-38.6-68.8.2-.2c-2.8-11.4-5-22.8-7.1-34.4h-.1l-.2-.3-5.5-.2-5.5-.3h-.2l-.2.2v.8c1.7 11.3 4.1 22.4 6.4 33.5l.2.2.2.2 5.4.4 5.4.3h.8zM576.4 595l-.5-.7-3.3-5.4-3.3-5.3-3.1-5.6c-8.3-14.5-1.6-3.2-8.2-14.9l-2.8-5.7-3-5.6c-1.6-4-3.7-8-5.4-12.2l-1.2-2.9c-1.7-3.5-3-7.2-4.4-10.9l-1.6-4-1.2-3.4-2-5.4-.6-2-1.3-4c-2.8-9-5.3-18-7.4-27.3l-1.2-5-.4-2-.3-2v-.2h.2l3.3-.5 3.3-.4 4.3-.7 4.3-.7v.1l.3.1.3 2 .4 1.8a311 311 0 0 0 35.6 88.1l.3.2.2.1 1.4-.4 1.3-.5c6.5-2.3 12.6-5.2 18.7-8.2h.4l2 2.8 2 2.8 3.6 4.5 3.4 4.4 4 4.6 3.9 4.7.3.2.2.2v.4l-2.4 1.5-2.5 1.5-.6.4-.6.5-3.6 2-3.6 2-3.3 1.6-3.3 1.6-3.4 1.6-3.5 1.5-3.5 1.3-3.5 1.4-4 1.3-4 1.4h-.2zm-170.5-.7-1.3-.2-7.4-1-7.3-1-3.1-.6-3.2-.4-8.4-1.2-8.4-1-.2-.2-.2-.2-.2-.4v-.5l-1.4-5.5-1.2-5.5-1-4.6-1-4.6-1-5.6-1-5.6-.7-4.3-.8-4.3-.2-1.8-.2-1.7-1.1-7.6-1-7.6-.6-5.5-.6-5.4-.4-4.5-.5-4.5-.7-10.4-.8-10.5-.4-9-.4-9v-2.6h1.5l8 .6 8.2.5 5.3.4 5.3.4 3.8.3 6.4.7.9.3c.4 0 1.5.6 2 1l1 .7 1 .8 1 1.1.9 1.2.5 1 .6 1 .5 1.3.5 1.3.8 3 .8 4c.2.4 3.7 31.3 3.7 31.6v3.7l-.2 2-.3 1-.3 1-.5.8-.4.7-.7.8-.7.7-.5.4-.6.3v.5l1 .6 1 .5 1 1 1 1 .9 1 .7 1 .7 1.2.6 1.4.5 1.2.4 1.2.5 2 .5 1.7 1 5.2 1 5.2.9 3 1 4.8 2.2 9 .6 2.4 1 4 .3 1.8.2 2.8c.2 1.5 0 3 0 4.4l-.2 1.6-.2.6-.2.7-.5.8-.4 1-.8.7-.8.8-1 .4-.7.5-1 .2-.8.3h-3zm-13.3-30.7v-.2c-1.3-6.6-2.5-13.3-3.6-20l-.3-.2-.2-.2h-1l-4.7-.4-5-.5h-.5l.2 1.3c.7 6.2 2.1 12.4 2.9 17.1l.5 2 11.6 1.3zm-8.1-48.5.2-.2-.2-2-.3-2.3-.7-6.8-.7-6.9-.2-.2-.3-.2-5-.3-5-.4-.4.1v2l.5 6.5.6 6.6.2 1.4.2 1.5.2.2.2.2 5 .4 5 .5h.5zm-132 75.2-.2-.5-1-3.3c-13.8-46.4-14.8-76.1-15.2-114.7v-8.4l.2-.2h21l.2.2V479c-.5 49.3 10.4 94 11.2 97.3l1 4.4.7 2 .5 2 .4 1 .3 1.2-.2.1-.1.2-3.5.5-3.5.5-3.2.7-3.2.7-2.5.6-2.5.6h-.2zm90-4-3.7-.5-3.6-.3-3.7-.2h-1.1l-.5-.9-.5-.8-3.1-5.3-3-5.2a531.1 531.1 0 0 1-19.3-35.9l-3.8-7.8h-.4v1.4l.2 1.4.7 6.3.8 6.2 1.3 8.7 1.6 9.2 2 10.4 1.3 5.6 1.3 5.5v.2l-.1.2h-5.3l-5.5.1-5.5.2-1.6.2-1.6.1-.2-.2-.2-.2-.7-2.8-.7-2.8c-1-4-2-8.2-2.8-12.3l-1-4.8c-2-9.4-3.2-19-4.3-28.5l-1-9a593 593 0 0 1-2-35.3v-12.7l-.2-12.8h.2l.2-.2 4.5.2 4.5.1 4.3.2 4.2.2v.1l.3.1.7 2 .8 2.2.9 2.2a1447 1447 0 0 0 12.9 31.5l1.7 4.2 2 4.5 2 4.4.3.4.2.3.2-.2.2-.2-.4-5-.4-4.9c.1-1-1.2-37.3-1.2-39v-1.6h3.3l8 .6 8 .5.2.1v.2l.2 3.6.3 8.4.2 8.5.3 5.3.3 5.3 1.6 22.3c.3 2.3 1.7 17 2 18.4l1.6 10.8.8 5.1c.9 6 2.3 13.2 4.3 22.7l1 4.7 1 4.6v.3H346zM408.4 460l1.8-1v-.3l-.2-.3h-2.8l-3-.3-1.6-.4-1.6-.5-.4.4 2.7 1.8 2.7 1.7h.7zm104-2-5.2-.5-3.8 1-1.6 1 1.2 1.3 4.8 6.4.3-2 1.7-3.8zm-60.4-1.6-.7-.5-.7-.4-1.7-2-1.7-1.9-.6-.8-1.2-3.6-1.2-3.6-.1-4-.2-4-.1-2.3-.1-2.3h-.3l-.2-.2-2 .4-2 .3-.2.1-.1.1v3.2l.2 3.1v2.8l.3 2.8-.7 3.5-.8 3.4-.3.8-1.4 1.8-1.5 2-.7.3-.6.4v.4l2.5.2h2.5l3.9.2 3.9.2h5.8zm36-.2 6-.2 3.2-.2 3-.3 2.6-.7 2.4-.7.8-.4.8-.3.5.2.5.1 3 .4 2.8.4 3-.4 3-.3 4.8-.7 4.8-.6 5.9-1 5.8-1 2.4-.4 2.4-.5 1.9-.8 1.8-.8 2-1 1.8-.9.8-.7.8-.6 1.8-1.9 1.7-1.9.7-1 .7-1 1.3-2.6 1.2-2.6.5-1.5.5-1.5.8-5.3.8-5.3.2-2.5V394l.3-5.8.4-6.6.4-6.5.4-4.5.4-4.5.7-6 .6-6 .7-5.4.8-5.3.7-4.8.7-4.8 1-6.3 1-6.2.6-3 .6-3 .3-2.2.3-2.4.2-2.3.2-2.3-.1-3.7-.1-3.7-.1-.8-.1-1-.3-.7-.3-.8-1.3-1.3-1.2-1.2c-.3-.1-.6-.3-1-.3l-2 .2-2 .3-.8.3-.8.3-2.1 1.3-2.2 1.2-1.7 1-1.6 1-2 1.3-2 1.4-3.6 2.4-3.6 2.5-3.4 2-3.4 2-2.4 1.4-2.5 1.3-4 2-3.7 1.7-2.3 1-2.3 1-1.4.8-1.4.7-2.1 1.2-2.2 1.1-.5.5h-1.2l-3 .4-2.8.4-3.4 1-6.5 1.4c-2.4.5-4.7 1-7.1 1.3l-4.1.6c-1.6.3-3.1.4-4.7.5l-6.6.5h-6l-3.6.6-3.6.7-2 .8-2 .8-.4.3-.4.3h-.4l-1.4-.8-1.3-.8-1-.4-.7-.4-2-.5-1.8-.5-2.4-.7-2.4-.7h-1l-.8-.3-3.4-.4-3.3-.4-1.6-.3-1.6-.4-4.7-.8-4.6-.8-4.5-1-4.5-1-2.6-.6-2.6-.5-1.2-.4-1-.3-1.4-.2h-1.4l-2.3-.3-2.3-.2-2 .6-2 .6-.6.4-.6.4h-.4l-2-1.6-2-1.7-1-.7-1.1-.7-2.4-1-2.4-1.2-2.7-1.3-2.6-1.2-2.8-1-2.8-.8-2.3-.7-2.3-.6-5-1.7-5.1-1.6-2.5-.8-2.5-.7-4.2-1.4-4.3-1.5-2.5-.8-2.6-.8-2-.2-1.8-.3-2-.3-2.1-.3-.7.2-.7.2-1-.7-1-.7-4-2-3.7-2-3.8-1-3.7-1.3-1.4-.4-1.4-.5h-.7l-1 .7-1 .7-1.4.4-1.3.5-1.3.1-1.3.2h-1l-1-.3-1.2-.5-1.2-.5-.6-.4-.6-.4h-.5l-2.2 1-2.3 1.1-1.3.4-1.3.3h-1.6l-1.5-.2-1.1-.3-1.1-.4-.8-.4-.8-.4-1.1-.8-1.2-.7-1-1-.8-1-1-1.4-1-1.5-.6-1.4-.7-1.4-.5-1-.4-1.2-.1-.2-.2-.2-3.4-.2-3.4-.2H262l-1 .4-1.2.3-1.4.7-1.4.8h-.5l-1-1-.8-.9-2.7-2-2.6-2-1.4-.5-1.3-.6-3.6-1.5-3.6-1.4-3.7-.8-3.7-.7-3.3-.6-3.4-.7-2.8-.5-2.8-.5-2.4-.3-2.4-.4-4 .3-4 .2-4.2-1.5-4.3-1.4-4.7-.6-4.7-.6-4.2-.4-4.1-.4-3.8-.3-3.7-.3h-2.1l-3.1.5-3.1.5-3.6-1-3.7-.8-3.1-.2-3.1-.2h-23.3l-4.7 1.2-4.6 1.1-.4.2-.4.2-2.4 2-2.4 2-1.2 2.6-1.3 2.6v1.3l.2 2.2.3 2.2v1.7l.2 1.7.6 1.4.5 1.4 1 3.2 1.2 3 1.3 3.8 1.3 3.7 1 3.5 1.2 3.5 1 3.3 1 3.4.8 3 .7 2.7 1 3.8 1 3.8 1.3 6.1 1.4 6.2 1 5.7 1 5.7.5 2.5.4 2.6.5 3.8.6 4 .2 1.5.3 1.6.2 1.5.3 1.5.4 2.3.5 2.3.5 2.7.6 2.6.6 2.2.5 2.1.6 2.3.6 2.2.6 2.2.7 2.1.2.7.2.6 1.2 3.5 1.3 3.6 1.3 3.6 1.4 3.6.5 1.2.4 1.3 1.4 3.5 1.4 3.6 1.2 2.8 1.2 2.8 1.3 2.8 1.3 2.8 1.4 2.8 1.3 3 1.5 3 1.5 3 2 1.7 2 2 2.6 1.1 2.7 1.2 4.3.5 4.3.5 3-.2 2.8-.2 8.7-.3 8.7-.3 2.8-.6 2.8-.5h1l2.7.4 2.6.4h11.3l11.4-.2 3.8-.6 3.9-.7 2.4-1.3 2.4-1.2 1.8-1.8 1.8-1.7 1-2 .9-2h.4l.4 1.4c0 .5.6 2.5.9 2.8l1.6 1.8 1.6 1.7 2.3 1.3 2.3 1.4 4 .8 4 1h3.8l3.7.1 13 .6 3-.4 3-.4h.9l.9.2 2.7.6 2.6.7 2.8.1 2.8.2 6.7.4 6.7.4h1.5l1.5-.2 2.3-.2 2.2-.3.7-.2.8-.3h.6l.8.3.8.4 3.4 1 3.5.7 5.6.5 5.6.4 3 .2 3.2.2h2.3l2.3-.2 2.3-.3 2.8.8 2.8.7 2.6.2 2.7.1 6.3.5 6.3.5 3.2-.4 3.2-.4 1.5-.7 1.4.8 3 .8 3 .8.6.1h.4l8.5.6 8.5.5 3.2-.5 3.3-.5 1.6-.8 1.5-1 .8-.7 1-1.3 1-1.3.3-.9.5-2.3.5-2.3-.2-4.5-.1-4.5-.1-3.4-.1-3.4h4l3.9-.6 3.7-.7.7-.2.7-.3.2.2v3.3l.2 5 .2 4.7.2 2.3v2.3l1 2.7.9 2.7.8 1 .8 1 1 1 1 1 1.7 1 1.6 1 3 .6 2.8.6h18.9zm-25.4-12-.1-.3-.1-.9-.1-.8-.3-4.9-.2-4.8-.2-6-.2-5.8V411l.2-9.8.3-6 .2-6.2.2-2.6.2-2.6.4-6.3.5-6.2.5-4.7.4-4.6.8-6.2.7-6.3.8-5.2.7-5.2 4.6-.2c7 0 14.2-1 21.2-2l5-.9 3-.7 3.3-.8h1.1v.4l-.8 4.1-.8 4.1-.8 4.8-.8 4.8-.3 2.4-.4 2.4-.2.2-.2.2-3 .6-3 .5-3.4.5-3.5.5-2.8.3-2.8.3-.8.1-.8.1-.1.4-.2.3-.5 4.8-.6 4.8-.2 2.6-.2 2.5.2.3.2.2 3.4-.4 3.4-.3 3.5-.4 3.4-.4 2.7-.4 2.6-.4h.7v1.2l-.1 1.1-.4 5-.5 5.1-.3 6-.3 5.8-.1.1-.1.2-3.8.4-3.8.4-6 .4-6 .4-.1.2-.2.1v17.6h4.7l4-.3 4-.3 3.6-.3 3.4-.3v.2l.2.2v5.8l.2 4 .2 4 .3 4.5.3 4.6v1.2l.2 1.3h-.4l-.4.1-3.7.3-3.8.2-5.7.3-5.6.2-8.3.1-8.2.1zm-49.4-1.8-5.7-.4h-2l-2-.3v-.7l-.2-.7-.2-11.6-.2-11.6v-9.8l.2-9.7.2-6.9.2-6.9.3-9.5.3-9.5.3-7.5.3-7.4.2-3.4v-3.3l.4-5.8.3-5.7h.2l.2-.2 1.7.5 1.8.4 4.3.8 4.3.8 1.8.4 1.7.4 6.7 1 6.6 1 3.6.5 3.6.4 1.2.3 1.2.3 1.3.7 1.3.7 1 1 1 1 .5 1.1.6 1.2.3 1.3.3 1.2.2 1.8v4.2l-.2 2.4-.3 3-.3 3.1c-1 10-1.8 21.1-2.3 34.4l-.1 5.4-.2 1.5-.1 1.5-.4 2-.3 1.7-.4 1.3-.4 1.3-.5 1-.5 1-.7 1-.8.8-.7.5-.8.5-1 .4-1 .3-.7.2-1 .1h-3.6l-3.6-.2-3.4-.2-3.4-.2h-4.1v3.2l-.1 3.2.2 10.1.3 10.1v.8H419zm18.3-51.9v-3.1l.6-8.7.5-8.7.3-4.5.3-4.5v-.8h-.5l-4.3-.7-4.2-.6h-1l-.8-.2-.2.2-.2.1-.4 6.3-.4 6.3-.3 7.5-.3 7.5v1.7l-.2 1.7.2.2v.3l4.9.4 4.8.4h1zm80.7 51-.1-.5-.2-2-.2-2-.2-4-.3-3.8-.1-4.2-.2-4c0-43.9 3.7-64.2 7.8-85.7l.9-4.5v-.5l.3-.5 1.6-.6 1.7-.6c10.5-4.4 21.1-9.3 30.5-16l1.5-.8 1-.4 1-.4c.6-.1 1 0 1.6 0l.5.3.5.3.4.6.3.5.3 1.2.2 1v3l-.1 3-.3 1.8-.3 2-.6 3.3-.6 3.4a439.7 439.7 0 0 0-7.2 80.8l.2 8.4-.2 2.1-.2 2.2-.3 1.6-.3 1.6-.4 1.1-.4 1.1-.5 1-.5 1-.5.8-.5.7-.8.8-.8.8-1.3.6-1.3.6-2.6.6-2.7.5-3 .6-3.2.6-3.4.5-3.5.6-5.3.7-5.2.7-1.2.1-1 .1-.4.1h-.2zm18.6-29.4 3.4-.7 1-.3 1.2-.3.2-6V399l.4-6.8c.7-16.3 2.2-27.8 4.2-41.2l.8-5.4v-.5h-.4l-.4.1-2.5 1.2-2.6 1-2.2 1-2.2 1-.1.3-.2.3-1 6-.8 5.8-.4 3.7-.4 3.7-.5 5.1-.6 5.1-.4 6.4-.4 6.3-.2 2.4-.1 2.4-.1 7.7-.1 7.7v.5h1zm-148 28.2-3.6-.3-4.6-.3-4.5-.4h-.2l-.2-.2v-38.9h-.2l-.1-.2-2.7-.3-2.6-.3-2.3-.3-2.4-.3-.2.2-.2.2v19.5l-.1 19.6-.1.1-3-.2-2.7-.3-6.3-.5-6.2-.5h-.1l-.2-.2c.4-88.6.4-91.8-1-120.3v-1.2l-.1-1.2h.5l6.2 1.7 6.2 1.8 5 1.4 5.3 1.4 2 .7 2 .6 5 1.3 5.2 1.4.9.3.9.3 1.2.6 1.2.6.9.6.9.6.8.8 1 .8.7 1.3.9 1.2.5 1.1.5 1.2.5 1.3.4 1.4.2 1.4.3 1.5v2l.3 2v5l-.2 5-.1 7-.2 7-.2 5-.1 4.7-.2 1.4-.2 1.4-.3 1.4-.4 1.5-.6 1.3-.6 1.2-1.2 1.1-1 1.1-1 .5-1 .5v.4l1 .5 1 .5 1 1 .8 1 .6 1.2.6 1.3.3 1.2.4 1.3.2 1.2.2 1.3v41.3h-1.1zm-12.8-70v-3.5l.2-8.5v-8.5l-.2-.3-.2-.2h-.7l-.7-.2-4.3-1-4.3-1-.2.2h-.1l-.2 12.2v12l.2.3.2.2 2.8.5 2.7.5 1.6.3 1.6.3h1.5zm-50.8 65h-1.6l-6-.5-6-.4h-1l-1-.2c0-11 0-21.9.3-32.8l-.1-.3-.2-.2-4.7-.4-4.7-.5h-3.4v1.5c-.2 2.5 0 6.4-.4 31.8h-.1l-.2.2-4-.3-4.2-.2-6-.3-5.8-.3h-.2l-.1-.2.2-13.8c.6-42-.7-67-3-90.2l-.4-5.9-.3-3-.4-2.9-.1-2.4-.1-2.4v-2.8l.3-2.8.3-1.6.3-1.6.5-1 .6-1.2.6-.9.7-.8 1-.6 1-.7 1-.3 1.2-.4 2 .1 1.9.1 4 1c5.9 1.3 11.7 3 17.6 4.4 4.3 1 8.5 2.3 12.8 3.4l8.8 2.4.2.2.3.1v1l.2.7.4 6 .4 6 .3 6 .3 5.7.3 6.2.2 6.1v6.1l.4 8.3V425l-.1 10.4h-2.4zm-15.6-63.5v-.2c-.1-11.5-.6-23-1.2-34.6v-.9l-.2-.9h-.1l-.2-.3-6.4-1.2-6.4-1.2h-.2l-.3.1v1l.3 1.1c.8 11.8 1.2 23.6 1.6 35.5v.1l.2.1 5.4.7 5.3.7h.4l.4.2h1.3zm-127.2 60-.1-.2-1.6-3.3-1.6-3.3-1.6-3.5-1.6-3.5-1.3-3-1.2-3-1.7-4.2-1.7-4.2-1-3-1.2-3-1-2.6-.7-2.8-.6-1.9-.6-1.9-1-4.2-1.2-4-.4-2-.4-2-1-4.9-.4-2.7-.5-2.6-.3-2.4-.2-2.4-.8-5.8-.7-5.9-1-6.5a370.8 370.8 0 0 0-12.7-54l-1.3-3.9-1.3-3.9.2-.2h26.5l.4.1.4.2.2.6v.6l1.5 5c5.3 19.2 8.8 37 11.2 54.5l.7 6 .5 4.2.5 4.4.4 2.7.8 5.3.4 2.5.8 4 .8 4 .6 2.3c.2 1.6.7 3.2 1 4.7l.7 2.1.8 3.1.4 1.7.5 1.6 1.3 4 1.3 4 .3.3.2.3.3-.2.3-.3.4-1.4.4-1.4.4-1.5.4-1.5 1.2-6 .4-2 .8-7.2.2-4.2-.6-3.3-.5-3.2-.2-1.8-.2-1.8-.4-3.9-.4-3.9-.3-3.5-.3-3.4-.3-1.8-.2-1.9-.5-4c-1-7.2-3.8-28.8-10.3-54.3l-1.3-4.8.2-.2 2.9.2 2.8.2 5.4.5 5.3.4 4.2.4 4.2.4.3.1.4.1v.4l.3.4 1 4.7c2.4 10.7 7.5 36.5 9.7 65l.3 4 .4 3.3.4 3.2.3 1.7.2 1.7.4 2.4.4 2.4.3 1.3.2 1.3.6 2.8.5 3 1 4 1 4 1 3.6 1 3.5.5 1.4.4 1.3h.6l.6-1.6.5-1.7.6-2.6.6-2.5.6-2.7.6-2.6.2-1.6.3-1.6.3-2.3.3-2.2.2-2 .3-2 .2-4.5.3-4.5-.1-3.9-.1-3.9-.2-3.4-.3-3.5a507.8 507.8 0 0 0-7.7-56.3l-.5-2.8-.6-2.8-.2-1-.2-1v-.2l.2-.2 2.4.4 2.4.3 6 1 6 1 3.2.5 3.2.6.3.1.4.2.2 1.4.3 1.4a550 550 0 0 1 6.9 58.2l.3 5.3.4 5.3V373l-.2 2.4c-.1 1.9-.4 3.8-.6 5.6l-.4 3.2-.5 3.1-.8 4-.7 3-1.2 4.5-.5 1.8c-.2 1-1.4 4.6-1.8 5.6l-1.8 5.1-1.3 3-1.2 3.1-1 2.4-2.3 5-2.2 4.5-1 2h-22.1l-.3-.7-.2-.6-1.5-4-1.5-4-1-3.2-1.2-3h-.5l-1.3 3.5-1.2 3.7-1 2.5-1 2.6-.7 1.6-.7 1.6h-2.3c-11 .6-8.3.1-21 .7zm78.5 13.6a9 9 0 0 1-2.7-2.2h-.5c-.9 1-2 1.5-3 2.1l.1.5h5.9zm141.6-129.6.7-.2 3.2.4 3 .3h.4V266l-.2-.2h-.1l-1 .2-1 .3-1 .5-1 .4-1.5.5-1.6.4-4.2 1-4.2 1.2-1.5.3-1.4.3-2.2.4-2.2.4h-.1v.1l-.1 19v18.7l4 2 4.3 2 1 .5 1 .5 1 .8 1 .8.4.2.3.2 1-.3 1.3-.3zm-22.6-26v-17l-.2-.2h-.1l-3.6.3-3.6.4-.2.1-.2.1V289l-.2 15.4.2.1.2.2 3.5 1.1 3.5 1.2h.7zm-14-1.7v-14.3l-3.6-.3h-3.5l-3-.2-3-.2H345l-1.8-.3-2-.3-2-.4h-2.3v22.3l-.2.2h-.2l-.3.1 1 .2 1 .2 10.7 3.6 10.7 3.6h.6zm-29.7 4.3V283h-.5l-.5.7-.6.8-1 1-1.1.8-1.4.7-1.5.7-1 .4-1.2.5-1 .1-1 .2v.4l1.8.8 1.6 1 2.8 1.4 2.8 1.4.6.1.6.1h.6zm-40.3-2.6 1-.6.7-.5.6-.6v-.4l-1-1.3-1.2-1.2-1.2-1.5-1.2-1.6-.8-1.2-2.3-4-1.5-2.9h-1.3l-3 .2h-3l-.2.2v.2l.2 1.4c.2 1.8.8 3.5 1.3 5.2l.7 1.5.7 1.5.8 1 .8 1.1 1 1.2 1.3 1.3 1 .5 1.2.6 1 .3.9.2h2.4zm15-1.9 1.5-.9.2-.3v-.3l-1.4-1.3-1.6-1.3-1.3-1.5-1.3-1.4-.7-1-.7-1-1-1.6-.8-1.7-.5-1.5-.4-1.5-.3-1.3-.2-1.3-.1-.8-.1-.7h-.5l-.6.5-.6.6-1.4 1-1.4.7-1.8.8-1.8.7-.3.2-.4.1v.5l1.2 2.1c1.4 2.8 2.5 4.3 3.9 6l1.5 2 1.7 1.6 1.7 1.7 1 .6 1 .6.8.4.9.4h1l1.3-.2zm17.4-3.6 1-.7 1-.6.8-.9c2-2.2 4-6 4.5-6.8 1-1.5 1.5-3.6 1.8-5.9l.2-1.5v-4.5l-.4-3.2-.4-2.3a51 51 0 0 0-3.3-11.2l-1.7-3.2-1-1.7-1.6-2-3.6-3.9-2.1-2-2.2-1.9-1.2-1-1.1-1h-.3l-.3-.2-.2.2-.1.2-.3 1-.3 1.2-.6 1.2-1.1 1.2-1 .6h-1l-.2-.2.4-1.5.4-1.5v-4l-.5-2.5-1-2-1.7-2.2-1.6-1-1.6-.9-2.5-.9c-1.7-.3-3.3-.3-5-.3l-3 .3-3 .8c-1.2.4-2.4 1-3.6 1.6l-3 1.8-3 1.7-.1.2v.2l.2.3.3.3 2 1.5 2 1.4 1.2.8 1.3.8v1.2l-.2 1-.3 1-.6 1-.5 1.1-1.8 1.6-1.7 1.7-1 .7-1 .6-1.1.6-1.2.5-.7.1-.8.1-3.7-2-3.8-1.9h-.3l-.4.5-.5.4-1 2.1-1 2-.2 1.2-.3 1.1v2l-.2 1.7.2 1.2.2 1.1.6 1.2.7 1.2v2.1l-.3.5-.3.4-.5.7-.4.7-.6 1.3-.7 1.3v1l-.2 1 .2 1 .2 1 .5.8.5 1 .8.8.8.8 1.2.7 1.2.7 1.5.4 1.4.3.9.2.9.3 1.9.3 1.9.3h5.7l1.8-.3 1.3-.3 1.3-.2 1.3-.4 1.3-.4 1-.5.9-.5.6-.5.7-.5.5-.9.6-.8v-2.6l-.5-.8-.4-.7-1-.9-.8-.9-1.6-1-1.5-1-2-1.2-2-1.2-1.5-.6-1.4-.7 1.4.1 1.4.4 1.2.3 1.2.3 1.3.5 1.4.5 1.5.8 1.6.8 1 .6 1 .7 1 1 1 1 .5.7.5.7h.4l.2-.5.2-.5v-.6l-1.6-3.8-1.5-3.8-.2-.6-.2-.6-.1-.5-.1-.4h-1.1l-1 .2-1 .2h-4.6l-1.4-.3v-.2l.9-.6.9-.6.7-.3.6-.3 1.5-.4 1.5-.5c1.5-.3 6.3-2 9-2.9l2.5-.7 1.5-.4 1.4-.4v.1l.3.2-1 1-.8 1-1.2.8-1.2 1-1.6.7-1.7 1v1.3l1 2.4.9 2.4.2.2v.2h.4l.7-.6.8-.7 1-.5 1.3-.6 1.3-.2 1.4-.2h1.7l1.7.2 1.5.5 1.5.5 1 .7 1 .6.7.8.7.7.4.8.5.7h.5l.5-1 .5-1 .7-1 .7-1 .9-.9.8-.9h.4l.4-.3h1v.6l-.2.5-.3.5-.6 1.5-.6 1.5-.2 1.4-.3 1.5-.2 1-.2 1-.2 1.3-.1 1.3-.3 2.6-.3 2.5v.3l-.1.2-.2-.2-.3-.2v-.3l-1-2-1-2-.7-1.4-.7-1.2-.8-1.2-.8-1.2-1-1-1-.9-1.1-.8-1.2-.8-1-.3-.8-.2h-2.2l-2 .7-.6.7c-.6.5-1 1.2-1.5 2a5 5 0 0 0-1.2 2.4 10 10 0 0 0-.6 2.8c-.2 1.1-.2 2.2-.1 3.3 0 1.1.2 2.2.5 3.3.2 1.1.7 2.1 1.2 3.2.4 1 1 1.7 1.6 2.5.9 1.3 2 2.5 3 3.7l1.3 1 1.2 1c1.6 1 3.3 1.5 5.2 2l1.4.1h3.8zm49-17.4c1 0 15.6-2.6 16.5-2.9 1.5-.3 7.7-2.3 7.8-2.3 4.3-1.3 8.4-3.2 12.5-5a100.4 100.4 0 0 0 23.2-14.8c6.4-5.4-.9.5 4.2-3.7l2.8-2.8 2.9-2.8 2-2.4 2.2-2.4c2-2.8.2.1 3.5-4.6 1.8-2 3.3-4.5 4.9-6.8l4.2-7.4 1.4-2.5 1.3-2.7 3.5-8.4c1.2-3.5 2.3-7 3.3-10.7l.8-3.3 1.4-7.5.4-2.6c.5-3.2.6-6.4.9-9.6v-9.3l-.3-3.4-.3-3.4-.3-2.5c-.3-3-1-6-1.5-8.9a104 104 0 0 0-6.4-20.3l-1.1-2.5-1.6-3.2-1.6-3.3-1.6-2.7-1.6-2.8-2-3-2-3-1.4-1.9-1.5-2-1-1.3-1-1.2-1.8-2-1.7-2-1.4-1.3-1.4-1.3-1.1-.8-1.2-.8-1-.7a10 10 0 0 0-2.5-1.3c-1-.5-2-.8-3-1-1-.4-2-.5-3.1-.8l-3.4-.4c-1.2-.3-2.4 0-3.6 0-1.2 0-2.3.2-3.4.5l-1.6.3-1.6.5-2.7 1.1-1.2.6h-.3l-.3-.5-.3-.5v-1.4l.3-.5.4-.5 2-1 2-1 3-1 3-.5h4.4l1.5.2 3 .8 1.5.5V72c0-.2-.1-.4-.4-.7l-4-3-3.7-2.7-4-2.6-5.1-2.9-3.5-1.7-3.6-1.7-4.1-1.8-4.7-1.7-4.4-1.5-2.3-.6-4.3-1.2-3.7-.8-2.5-.5-4.2-.6-5.5-.6-5.4-.4h-8.1l-5.4.4-5.5.6-4.2.6-2.5.5-5.5 1.3-5.3 1.4-5.6 2-3 1-3.8 1.7-6.2 3-4 2.2-4.4 2.7-4.5 3L292 71l-4 3.4-5.1 4.7-4.2 4.5-2.5 2.8-2.4 3.1-2.4 3.2-3.4 5-2.1 3.4-2.3 4-3 6-2 4.7-1.5 4-2 5.7-.6 2.4-1.3 5.2-.6 2.8c-.2 2.5-.8 5-1.3 7.4l-.7 6.7v13.1l.2 1.1.5-.2 5.5-3 5.6-3 2.6-1.5 2.6-1.5 1.8-.8 1.9-1h.9l1.3.5 1.2.4 2.4 1.3 2 1.4 1 1.1c.8.7 1.3 1.5 1.9 2.3a24 24 0 0 1 3.2 7.6l.3 1.7.2 1.8c0 1.7 0 3.4-.2 5.1a12 12 0 0 1-1.4 4c-.5 1-1.2 2-2 3l-.6.6-.8.6-.7.3-.8.3-2 .8c-1.3.4-2.4 1-3.5 1.5l-1.4.7-1.5.7-1.5.7-2 1.2c-1.2.7-2.2 1.7-3.1 2.6l-1.2 1.2-1.5 2.1-.5 1.2-.5 1.2-.3 1.2-.3 1.2.8 1.7.7 1.7 1 2 1 2 1.6 2.7 1.5 2.7 1.2 1.8 1.2 2 1 .8 1 .8 1.7 1.3 1.8 1.2h.4l1-.6 1-.6 2.6-1.6 2.7-1.5 1.4-.7c.8-.5 1.7-.8 2.6-1.2l2.7-.9 1.6-.4 2-.2 1.9-.3h1.2l2.8.2c1 0 2 .3 3 .6 1 .2 2 .7 3.2 1.2l1.8 1 1 .8 1 1 .9 1 .9 1.2.6 1.3.6 1.4.5.2.5.3 2.3 1.8 2.3 1.8 1.9 1.7 1.9 1.6 2.6 2.7 2.7 2.7 1 1.4 1 1.3.7 1 .7 1.1.7 1.4.7 1.3.6 1.2.5 1.2.5 1.4.5 1.4.7 2.1.6 2.2.5 2.5.4 2.4.3 2.5.2 2.5v.7l.5.2.3.1 2.3.5 4.9 1 4.7.5c1.8.3 3.6.4 5.5.5 3 .3 6.2.2 9.3.2l8-.4zm22.3-69.7c-2.2-.6-4.3-1.5-6.2-2.7l-1.7-1.4-1.7-1.3-1.7-1.6-1.7-1.6-1.3-1.6-1.3-1.6-2-2.8-2.1-2.7-1-1.6-1-1.6-1-1.5-.7-1.5-.6-.4-.6-.4-1.4-1-1.4-1-2.3-2.5-2.3-2.5-.3-.7-.3-.6 2.5 1.8 2.4 2 1.2.7 1.2.8 1.7 1 1.6 1 1.7.7 1.7.7 1.5.6 1.5.6 1.2.5 1 .6 1.3.4 1.2.4 1.3.4 1.4.3 2.7.5 2.7.5 2 .2 1.9.3h5.9l1.6-.3 1.6-.2 1.8-.5 1.9-.5 1.5-.6 1.5-.5 6.6-3 1.8-1 1.9-1 1.7-1 1.8-1 1.7-1.2 1.7-1 .2.1-.9 1.1-.8 1.2-1.5 1.3-1.4 1.4-1.5 1-1.5 1.1-.7 2-.8 2.2-.7 1.7-.8 1.8-.6 1.2-.6 1.2-1 1.6-1 1.6-1 1.3-1 1.4-1.5 1.6-1.7 1.6-1 .7-.8.7-2.6 1.5c-1.6 1-3.3 1.2-5 1.5H396zm3.4-7.6v-.4l.7-3.5.6-3.6v-.2l-.1-.2-2.5-.2-2.5-.2-2.8-.4-2.8-.4-2.3-.5-2.4-.5-1.3-.4-1.3-.4c-.2 0-.6 0-.5.2l.4.6.3.6 2.3 3.5 2.3 3.4 1 .5 1.2.5 1.2.4 1.2.4 2.3.5c1.3.3 2.7.5 4 .6h.8zm7.3-.3 1.4-.3 1-.4 1-.4 1.6-.7 1.4-.8.5-.4.5-.4.6-1 .7-1 .7-1.5.7-1.4.8-1.8.8-1.9v-.5c0-.1 0-.2-.3-.2l-1.1.6-1.2.6-1.4.6-1.5.7-1.3.4-1.4.5c-1.2.4-2.5.6-3.5.8l-.5.2-.2.2-.2.2-.2 1-.1.7-.5 2.8-.5 2.8v1h.8zm-62.2-8.5-.1-.2-.4-1.2-.4-1-.4-1.6a26 26 0 0 1 0-9.6l.4-1.5.4-1.3.5-1.2.7-1.4.8-1.4.9-1.3.9-1.2 1.4-1.4 1.3-1.3 1.3-1 1.3-.9 1.5-.7 1.4-.8v-.8l-.4-1.6-.4-1.5-.5-2.7-.6-2.7-.5-2.8-.8-5.4-.3-2.5-.2-3.8-.3-3.7c0-3-.2-6 .4-9l.3-2 .6-3.4a47 47 0 0 1 1.2-4.9l.5-1.6 1-1.9.9-1.9.9-1.4.8-1.3 2.2-2.3 2.4-1.7 1-.4 1-.5c.5 0 2.4-.7 2.8-.8l3-.2 1 .1 1 .1.7.4.5.3.2.7.2.6v.4l-.2.5-.5.5-.5.6v.7l.2.7c.3.7 11 59.4 11.4 61l.3 2.2.3 2.4.2 1.5v1.5l.3 3.6.2 3.7v.2l-.2.3-.2-.2-.2-.2-.8-1.9-.7-1.8-1.4-2.9-1.5-2.9-1.6-2.3-2.1-2.3-1.6-1.2-1.6-1-1.8-1-1.8-.9-1.5-.4-1.5-.4-2.6-.2H360c-1 .2-1.9.2-2.8.5l-2.8 1-2.2 1.2a18 18 0 0 0-3.7 3l-1 1.1-1.8 2.6-1 2-.4 1.2c-1 2.7-1.4 5.4-1.8 8.2l-.2 1.7-.1 1.8v1.7l.2 1.7h-.2zm36.7-23.6v-.4a1843 1843 0 0 0-10.6-59.4l-.5-1.8-.1-.2-.2-.2h-2l-1.4.4-1.5.4-1.3.7-1.3.6-.7.8-.7 1-.7 1-.7 1-.3.6-.4.6v.2l.2.2c7 0 9.3 6.6 11.7 13.8l.9 3.1.2 1 .2.8-8.4 13v.5h.4c.3 0 8.6-3.7 8.9-3.9h.6l.2.6v.5c1 4.2 1.6 8.4 2.4 12.6l.3 3 .3 3 .2 1.8.2 1.8 1.5 1.2 1.4 1.3.3.4.3.4h.5zm26.2 9-.5-.3v-.2l1-.2 1-.2 1-.4 1-.3 1.5-.7 1.5-.7 1.2-1.2 1.3-1.3.6-1.4.6-1.3.3-1 .2-1c0-1.1.1-2.2-.1-3.4l-.2-1.6-.4-.9-.4-.8-1.2-1.2-1.1-1.2-2.3-1-2.3-1.2-1-.3-1.2-.2h-4.6l-1.2.2-1.2.2-.7.3-.7.2v-.2l-.1-.3.3-.4.3-.4 1-.7.9-.6 1.3-.5 1.4-.5h4.8l1.4.4 1.3.4.6.2.7.2.3-.3-1-5-1.1-5.2-.2-1-.1-1-.3-2.7-.2-2.6-.3-3.8-.3-3.7v-3.8l.2-3.8.7-3.6.6-3.6.3-1.4.3-1.4.5-1.3.4-1.3 1-2.2 1-2 .9-1.3.8-1.2 1.2-1.2 1.2-1.3 1.2-.8 1.3-.8 1.4-.5 1.3-.6 1.3-.3 1.4-.3h3.6l.7.3.6.2.4.5.3.6v1.2l-.5.6-.6.7v.7c1.7 10-2.6-16 9.8 53.6v.6l.2.6.2.2.3.3 1.2.4 1.2.4 1.4.8 1.5.8 1 .8 1.2 1 1.2 1.1 1.2 1.2 1 1.2.8 1.2.5 1 .6.8-.1.1-.1.1-1.3-1.3-1.4-1.2-1-.7-.7-.6-1.4-.8-1.3-.7-1.7-.7-1.7-.7-1.4-.6-1.3-.6-1.6-.4-1.6-.4h-2.8l-2.6-.2-2.5.6-2 .8-1.3.6-1.3.7-2 1.4-1.6 1.3-.7 1-.7.8v2l-.3 1.2-.3 1.3-.5 1-.5 1-1 1.1-1 1.2-.7.8-1 .8-1 .7-1 .6-.7.2-.7.2c-1.6.2-3 .2-4.3.1zm31-23-.1-.6c-3-17.2-6-34.4-9.4-51.5l-.4-1.8-.3-.3-.2-.2h-1.2l-1 .2-1.3.3-1.1.3-1 .5-1 .4-1 1-1 1-1 1.2-.8 1.3v.6c9 2 10.6 10.9 12.8 18.2v.5l-.3.5-.4.5-2.1 2.7c-1.7 2.5-3.3 5-4.7 7.7l-1 2h.2l.2.2.5-.2h.5l4-1.9 4-1.8h.6l.2.5.2.6.3 1.5.3 1.5.5 2.8.6 3 .4 3.2.5 3.3v1.4l.2 1.4.3.3.3.4h2.7zm-102-36.7-.7-.3c-.3 0-.2-.4-.2-.8l.3-1.8c0-1.3.5-2.6.8-3.9a29 29 0 0 1 1-3.6l1.4-3.4c.5-1.2 1.2-2.4 1.9-3.6.5-1.2 1.3-2.2 2-3.2l2.4-2.8c.8-1 1.7-1.8 2.7-2.6l1.6-1.3 2.8-1.8 2.6-1.2 2.6-.8 2-.5 3.6-.3 3.8.3c1.4.3 3 .7 4.3 1.2 1 .4 1.9.8 2.7 1.3l1.5.8.3.5.4.5v1.4l-.1.2-.2.2-1.3-.6-1.4-.5-.5-.2-.6-.2-2.1-.4-2.2-.4H361l-2.6.3a27.1 27.1 0 0 0-7.2 3l-1.4 1-1.4 1-1.6 1.4-1.5 1.6-1.5 2-1.2 1.7c-2.2 3.1-3.7 6.6-5.3 10l-.7 2-.6 1.7-.4 1.2-.3 1.1h-1zm173 150.3 3.4-.2h1l1-.3.8.3.8.2h2.6l1-.5.8-.3 1-.7 1-.7.7-1 .7-.9.6-1.2.6-1V248l-.3-1-.3-1-.4-1.6-.3-1.8-1-2.5-2-3-1.8-2.2-2.3-2.3-2.3-2-3-1.8-2-.9-1.7-.7-2.4-.7a8.1 8.1 0 0 0-4.7.3l-1 .3-1.3.8-1.1 1.6-.4.7-.2 1.4.3 1.8.9 2 1.4 2 .8 1 1 1 1.4 1 1.4 1.1 1.2.7 1.2.8 2 1 2.3 1.1v.2h-.7l-.1.3-.2.3.3.6.2.7.8 1 .9.7.2.4.2.3v.4h-.6l-1.6-.8-1.6-.8-1-1-1-.8-.2-.4-.2-.3-.2-1-.1-1-3-1.5-2.8-1.5-1-.7-1-.7-1-1-1-1-.7-1-.7-1-.3-1-.3-.9V231l.2-1 .3-1 .4-1 .5-.8 1-1 1.2-1.3 1-.6 1.3-.5c2-1 4.3-.6 6.5-.6l1.7.4 1.6.3 1.5.6 1.6.5 1.3.7 1.3.8h.5V225l-1.6-.8-1.6-.8-.8-.8-.7-.8-.6-1.2-.5-1.2-.3-1.2-.3-1.2v-2.6l.3-1 .2-1 .6-1 .6-1 1-1.5 1-1.3 1.4-1 1.3-1 1.2-.8 1.3-.8 1.7-.6 1.6-.6 1.7-.2 1.6-.3h1.2l1.2.2.5.2.5.2v.2l-1.4.3c-.4 0-2 .5-2.5.7l-1.1.4-1.1.6-2 1.1-1 .6-2.1 2.3-2.2 2.3-.6 1c-.2.2-.7 1.7-.8 2l-.2.7v1.3l.2 1 .7 1.8 1 1.4c.6.7 1 .7 1.4.5l.8-1.7.8-1.6 1-1.3 1-1.2.7-.8.8-.7.7-.4.7-.4 1-.3 1-.3h2.8l1 .4.9.3 1 .6.9.6 1 1 .9.7h.2l.3-.2.4-.8.4-1 .2-1.2.3-1.4-.1-1-.1-.9-.3-1.3-.2-1.4-.2-.8-.3-.8-.5-1-.5-.9-.8-.7-.8-.7-1-.5-.8-.4-1-.3-2.6-.5h-3c-.9 0-1.8.3-2.4.5l-1 .3-1.2.6-1.3.6-1 .6-.7.6-.8.7-.8.7-.6.2-.6.1-1.4-.3c-1-.3-2-.3-3-.3l-2.3.6-1.1.5c-.7.3-1.2.7-1.8 1.1l-2.5 2.2-1.7 2.2-1.1 2.1a14 14 0 0 0-1.1 5.5l1.7-.3 1.4-.2 1 .1.9.1v.3l-1.6.8-1.6.8-1.4 1-1.4 1-1 .8-1 1-1.2 1.4-1.2 1.5-.5.7-.5.8-.6 1.3-.7 1.3-.4 2-.5 2-.4 2.1-.3 2.2v3.7l.3 1.1.2 1.1.5 1.2.5 1.1 1 1.2.8 1.2 1 1 .8.8 1.8 1 1.7 1 .9.5 1 .6 1 .5 1.2.6 1 .3 1 .3 1 .2 1 .1h1.7zm20.8-9.5 2.6-1.6 1-1 1-1 .7-.9.7-1 .6-1.2.6-2 .7-1.9.2-1 .2-1-.1-1.5v-1.6l-.4-1.6-.4-1.6-.4-1.3-.4-1.3-.6-1.3-.6-1.4-1-1.7-1-1.8-1.1-1-1.1-1.3-2.2-1a7 7 0 0 0-2-.3c-.6.1-1.2.1-1.8.4l-1.6.8a6 6 0 0 0-1.6 1.6c-.5.8-.9 1.7-1.1 2.5l-.3 1.2-.3 1.3a21 21 0 0 0-.5 2.8c-.2 1 0 1.9 0 2.8l.2.5.2.5 1 1.2 1 1.1 1 1.4 1.2 1.3.7 1 .6 1 .7 1.2.6 1.3.3 1 .4 1.1.3 1.5.3 1.5v2.5l.2.2h.6zm13-7.6 2-1.2 1-.6 1-.7.6-.5.6-.5 1.3-1.5 1.4-1.6 1.4-1.8 1.3-2 .9-1.4.9-1.5.6-1.6.6-1.6.7-2 .6-2.2.2-1.6.1-1.5v-1.5l-.1-1.5-.2-1-.2-1.2-.4-1.4-.5-1.5-.7-1-.6-1.3-1-1-1.1-1-.7-.5-.7-.3h-2l-1 .4-.8.4-.7.6-.8.5-.5.8-.6.8-.6 1.2-.7 1.3-.4 1.5-.4 1.6-.2 1.8-.2 1.8-.2 2.3-.2 2.2v3.4l-.2 3.4h-.4c-.2 0-.4-.4-.5-.6l-.3-.7-.2-.8h-1l-1.4.7v.5l.4 1.3.4 1.4.5 1.3.4 1.3.4 1.8.3 1.8v4.4l-.2.6-.1.7v.4h.4zm-264.5-2 1-.4.7-.4.7-.4 1-.8.8-.8.5-1 .5-1v-1l-2.2-1.6-2.2-1.6-2-1.3-2-1.2-1.5-1-1.6-1.2-1.3-1-1.3-1.2-3.2-2.8-3.3-2.8-1-1-1-1-.7-1-.8-1.2-1-1.8c-.9-1.5-1.2-3.3-1.7-5 0-1.5-.3-2.8 0-4.6l.6-1.8.6-1.8 1-1.8.9-1.8c.5-.8 1-1.6 1.7-2.3l1.4-1.4 2.5-2c.8-.7 1.6-1.2 2.5-1.7l1.6-.9 2-1 2.3-.9 1.2-.4 2.6-.6 1.3-.3 2.2-.4.6-1.4.8-1.9.7-2.4.3-2.8-.3-3-.7-3-1-2.8-.8-1.7-1.2-1.8-2.3-2-2.2-1.3-3.2 1.4-3 1.4-2 1.1-2 1-2.6 1.8-2.6 1.7-1.8 1.3-1.8 1.3-1.8 1.5-2 1.4-1.7 2-2 1.8-.7 1-1.8 2.1-.8 1.1-.8 1.2-.8 1.2-1 2.2c-.8 1.4-1.3 2.9-1.8 4.3l-.7 2-.4 2-.4 1.8-.2 1.8-.1 1.8v3.6l.4 1.4.2 1.4.6 1.7.6 1.7.7 1.5.8 1.4.8 1.2.9 1.2 1.3 1.5 1.3 1.6 2 2 1.8 1.8 2.2 1.8 2.2 2 2.4 1.7 2.5 2 3.2 2.1 3 2.2 4.7 3 4.6 3 .7.3.6.4h.7zm205.7-2.2.3-2 .4-1.6.4-1.6.5-1.2.5-1.2.5-.9.5-.8.8-1.3.9-1.2.9-1 .9-1 1-.7.8-.7V219l.4-1.7.3-1.8.2-.8.3-1v-.2h-.6l-1.3 1-1.3 1-1.5 1.8-1.6 1.8-.7 1-.8 1-1 2-1 2.1-.6 2-.6 2v7l.2.6.2.8.2.2.2.2v-.2h.2zm-4.4-10.4.6-1.8.8-1.6.7-1.5.7-1 .6-1.3.8-1 .8-1v-.5l-4.2-2.2-4.4-2.4-1.6-1c-1.2-.6-2.3-1.5-3.4-2.4l-1.8-1.5h-.4l-1.3 2.6-1.3 2.6-1.2 2.2-1.2 2.1-.7 1.3-.7 1.2v.5l.5.4.5.4 2.8 1.7 2.8 1.7 3 1.6 3 1.5 1.8.7 1.6.6h.6zm61.9-31-.1-.2v-18l.4-3.5.2-3.4.6-3.5.5-3.5.2-.7v-.7l.2-.2.2-.2h1.6l1.8.4 1.8.4h.2l.3-.2.3-1 .3-1 1.6-6.4.3-.8.2-.9h.2v-.2l1.5.8 1.4.7.5.2.5.3h.6l4-3.9 3.9-3.9 1.4-1.5 1.5-1.4h.4v4.8l-.3 3.3-.2 3.2-1.6 10.8-.6 3-.5 2.8-.3 1.7-.2 1.7-.1.3-.1.2h-.5l-1.7-.5-1.7-.4-.6-.3-.6-.3-.3.1-.3.1-.1.3-.1.3-1 2.3-.8 2.3-.6 1.3-.5 1.4-.3.1-.2.2-1.2-.2h-1.2l-1.1-.2h-1.1l-.3.1-.3.3-.6 1-.5 1-.7 1.2-.7 1.2-1.5 2.5-1.4 2.4-1.3 2.3-1.2 2.3h-.1zm2.6-9 .4-1 1.8-3.7 1.2-1.8 1-1.9h.3l.2-.3 2 .7 2 .6.3.1.3.1h.2l.2-.2 1.4-4.2 1.4-4 .3-.9.4-.7h.4l.4.1 2 1 2 1v-.2l.3-.2v-.4l.2-.3.4-1.5.3-1.6.4-2 .4-2 .3-2.8.3-2.8.2-4v-4.3l-.2-.3-.4.5-.4.5-3 4.4-3 4.4-.3.4-.4.5-.2-.2h-.2l-1.2-1-1.3-.9-.4-.2-.4-.2-.2.2-.2.2-.7 2-.6 1.7-.4 1.3-.3 1.3-.6 1.5-.5 1.5-.2.2-.2.2-1.1-.6-1.2-.7-.8-.5-.7-.6-.2.2-.2.2-.5 2.5-.5 2.5-.2 1.5-.3 1.5-.3 2.8-.3 2.8-.3 4.7v4h.4zm-37.7 6.6-1.4-1.2-7.6-6.5-2.8-2.7c-1.6-1.4-3-2.9-4.4-4.4l-3.4-3.8-1.8-2-.7-1-.7-.8.2-.3.2-.3a19 19 0 0 1 4-3v-.5l-5.8-8.5v-.6l3.6-1.4.3-.3.3-.2c-.1-5.5-.3-3.9-.7-10.3l-.1-2.9-.1-1-.1-1.3.3.1 5 4.5 3.9 4 2.3 2.7 4.2 5 3.7 4.6 1.3 1.4.5.6.4.6v.3l-.1.2-1.7 1-1.7 1.2-.5.3-.5.2v.7l1.5 2.8 1.5 2.7.5 1 .4 1-1.8 1.8-1.8 1.6v.8l1 2.7 1 2.6.9 2.7.9 2.6.8 2.2.9 2.2v.1h-.4zm-3-5.5-1-2-1-2-1-3.2-1-3v-.3l.3-.2.9-.5.9-.5 1-.7 1-.7v-.5l-2-3.5-2-3.4-.5-1-.5-1 .5-.4.5-.4 1.8-.7 1.7-.7v-.2l.2-.2-.2-.4-.1-.3-1.1-1.4c-4-5.2-8.5-10-13.5-14.2h-.2v1l2.9 10.3v.7l.2.6-.3.1-.2.1-2 .5-1.8.4v.6c2 3.7 2.2 3.5 4.2 7.1l.9 1.5v.3l-.1.2c-1.3.6-2.7 1-4 1.3l-.2.1-.1.1.3.5.3.4 2.9 3.7 2.7 3.2 5.4 5.6 1.8 1.6 1.8 1.7h.5zm21 .2v-.2l-3.1-6-3-6.2-2.6-6-1.8-4.7-2-6.7-.3-.8-.2-.8h.2l.3-.3.8-.3.9-.3 1.6-.4 1.6-.3v-1.2l-.6-3.5-.8-3.5-.2-1.3-.2-1.2.2-.2h4.5l.2-.3.2-.3.9-2.6.8-2.6.7-1.9.6-2 1-2.5.9-2.6h.2l1 2.2 1 2.2 1.3 3 1.2 2.7.7 2.1.7 2.1.2.7.2.7.8 2.8.9 2.7.6 2.2.6 2.3.4 1.3.5 1.4.3 1 .2 1h-.2l-.2.1-2 .3-2 .4h-.8l-.3.2-.3.2.2 2.6.4 4.3v1.8l-.6.3-.7.3-1.5.5-1.6.5-.2.4-.2.3-.4 7-.2 1.4-.1 1.4-.2 3.1v3.2h-.2v.2zm-1.6-10.4v-2.3l.2-3.2.2-3v-.2h.2l2.3-.4 2.3-.3.2-.2.3-.2-.1-1-.1-.8-1-7.2v-1.4h.4l.4-.3h4.5v-.8c-.1-.9-.4-1.7-.6-2.5l-.4-1.6-.5-1.9-1.3-4-1.3-3.3c-.5-1.4-1.2-2.7-1.8-4l-1.2-2.9h-.4l-.2.3-.1.4-1 7.4-.3 2.1-.3 2.1-.2.2-.2.2-2-.3-1.7-.3h-.5l-.1.2-.1.3c0 .8.7 7 1.2 8.6v1.6h-2.4l-1-.2-1-.2-.2.2-.2.1 1.6 6 2 6 1.7 4.2 2 4.4.2.4.2.4h.2l.2-.2z"/>
</svg>
