<?xml version="1.0" encoding="UTF-8" standalone="no"?>
<svg
 data-name="Layer 1"
 version="1.1"
 viewBox="0 0 553.1815 553.5046"
 id="svg88"
 width="553.1815"
 height="553.5046"
 xmlns="http://www.w3.org/2000/svg"
 xmlns:svg="http://www.w3.org/2000/svg">
<defs
 id="defs1">
<style
 id="style1">.cls-1 {
        fill: #cacaca;
      }

      .cls-2 {
        fill: #94c6d6;
      }

      .cls-3 {
        fill: #94c7d8;
      }

      .cls-4 {
        fill: #080808;
      }

      .cls-5 {
        fill: #0c0c0c;
      }

      .cls-6 {
        fill: #fff;
      }

      .cls-7 {
        fill: #141512;
      }

      .cls-8 {
        fill: #f9bb45;
      }

      .cls-9 {
        fill: #f9f9f9;
      }

      .cls-10 {
        fill: #f2f2f2;
      }

      .cls-11 {
        fill: #040303;
      }

      .cls-12 {
        fill: #c8c8c8;
      }

      .cls-13 {
        fill: #edeeee;
      }

      .cls-14 {
        fill: #e8b85a;
      }

      .cls-15 {
        fill: #ccf4fe;
      }

      .cls-16 {
        fill: #c5c5c5;
      }

      .cls-17 {
        fill: #fcbd45;
      }

      .cls-18 {
        fill: #cbf3fd;
      }

      .cls-19 {
        fill: #0b0909;
      }

      .cls-20 {
        fill: #fbbd45;
      }

      .cls-21 {
        fill: #040202;
      }

      .cls-22 {
        fill: #040302;
      }

      .cls-23 {
        fill: #94c7d7;
      }

      .cls-24 {
        fill: #c9f0fb;
      }

      .cls-25 {
        fill: #f7f7f7;
      }

      .cls-26 {
        fill: #fdfdfd;
      }

      .cls-27 {
        fill: #030202;
      }</style>
</defs>
<path
 class="cls-15"
 d="m 263.0996,0.2684982 c 160.83,-6.9400002 293.86,121.5400018 290,282.8000018 -4.29,179.2 -174.52,307.49 -348.56,260.76 C 48.38957,501.9085 -38.92043,334.1885 16.94957,181.3185 54.64957,78.1885 152.6896,5.038498 263.0996,0.2684982 Z M 376.5196,339.4985 c 25.96,-24.98 86.482,-46.4 94.372,-81.52 8.13,-36.19 3.77,-73.77 -6.23,-109.16 -15.44,-54.64 -41.53,-79.42 -88.7,-108.1 -19.76,-12.01 -37.89,-18.58 -60.43,-24.05 -31.01,-7.520002 -63.35,-12.150002 -95.21,-7.350002 l -20.48,4.720002 c 26.14,2.09 52.45,6.51 76.8,16.33 -33,-1.96 -63.42,13.83 -80.64,41.76 -45.68,5.24 -91.57,20.87 -129.56003,46.84 -28.47,19.46 -47.22,57.83 -54.61,90.83 -8.889996,39.7 -13.309996,86.6 0.93,125.5 0.18,0.5 0.17,1.42 0.84,1.31 5.32,-52.74 25.83,-103.49 57.88,-145.41 26.12,-34.17 59.27003,-57.76 101.01003,-69.39 3.29,-0.92 6.66,-2.09 10.08,-2.16 0,0.07 0.47,0.54 0.5,1.16 0.09,1.76 -0.08,3.47 0.36,5.21 -6.29,6.96 -10.19,13.84 -9.44,23.57 0.52,6.77 2.41,10.16 7.14,14.7 0.28,1.27 -0.66,0.92 -1.4,1.22 -13.55,5.45 -25.97,11.53 -38.4,19.22 -3.31,2.05 -7,4.56 -9.64,7.4 -1.94,-0.12 -4.03,0 -5.99,0 -10.41,0.06 -21.42,-2.11 -32.11003,-0.91 -4.74,0.53 -11.39,2.83 -14.22,6.9 -3.29,4.74 -2.4,10.08 -0.97,15.38 2.87,10.59 7.32,20.75 10.09,31.91 -0.11,0.73 0.15,1.74 0,2.4 -0.52,2.26 -2.63,5.4 -3.58,7.7 -22.87,55.27 -18.2,108.99 2.27,164.26 7.88,21.28 15.66003,36.21 31.07003,52.93 22.01,23.9 61.1,54.75 92.74,63.26 42.37,11.41 90.11,12.33 132.98,3.55 l 21.49,-6.58 c -66.46,1.07 -131.36,-21.69 -182.63,-63.38 -3.06,-2.49 -6.85,-5.44 -9.63,-8.13 -0.58,-0.56 -1.16,-1.05 -1.18,-1.94 0.31,-7.02 -3.32,-14.34 -5.26,-20.9 0.07,-1.48 2.17,-1.82 3.1,-2.61 3.07,7.66 4.6,17.76 13.01,21.54 6.88,3.09 18.01,-0.98 25.25,-2.96 1.96,-0.54 3.91,-1.94 5.94,-2.22 3.88,-0.55 10.64,0.16 15.08,-0.04 1.05,-0.05 1.36,-0.48 1.44,-0.48 0.32,-0.02 0.64,0.02 0.96,0 0.15,-0.01 0.69,0.06 1.44,0 0.95,-0.08 1.93,0.09 2.88,0 -0.26,1.16 0.59,0.99 1.26,1.35 50.25,27.02 93.92,28.97 148.9,16.07 0.84,-0.2 1.8,0.26 1.51,-1.1 0.46,0.05 0.98,-0.06 1.44,0 0.03,0 0.11,0.44 0.48,0.48 10.74,1.29 26.49,-0.32 37.05,-3.03 3.68,-0.94 6.01,-2.76 8.91,-3.57 2.28,-0.63 4.93,-0.39 7.23,-0.93 3.91,-0.93 10.65,-4.31 14.43,-6.21 10.57,-5.31 33.26,-17.9 23.1,-32.34 6.07,-6.19 12.61,-11.86 18.23,-18.49 37.4,-44.15 57.15,-101.66 47.86,-159.68 -3.15,-19.64 -8.39,-39.19 -14.73,-57.99 -0.83,-0.11 -0.45,1.09 -0.47,1.67 -2.69,72.04 -28.28,146.41 -82.31,196.1 -4.02,3.7 -8.66,7.59 -13.21,10.55 -8.05,-14.74 -60.148,-33.175 -64.758,-48.955 z"
 id="path2" />
<path
 class="cls-3"
 d="m 419.6796,351.4885 c -1.32,-4.51 -3.47,-9.31 -7.68,-11.76 18.14,-7.97 14.24,-29.03 14.86,-45.14 0.27,-7.11 0.79,-14.49 1.46,-21.58 1.44,-15.19 6,-31.87 6.74,-46.54 0.16,-3.16 0.5,-11.32 -3.86,-11.78 -1.05,-16.26 -3.92,-32.93 -8.9,-48.46 -1.31,-4.09 -2.94,-8.42 -5.02,-12.02 -0.2,-0.34 -0.38,-0.81 -0.48,-0.96 0.56,-0.67 -0.43,-2.63 -0.73,-3.35 -1.71,-4.21 -4.6222,-8.878 -6.0322,-13.208 0.11,-0.19 0.4222,-0.302 0.7422,-0.722 0.78,-1.02 3.27,-0.19 4.51,-0.55 l 2.03,-5.66 4.76,0.44 2.88,-24 c -0.83,-0.22 -0.96,0.34 -1.44,0.71 -1.78,1.37 -6.1,7.08 -7.88,6.97 -1.01,-0.06 -1.96,-1.26 -3.15,-0.96 l -1.94,7.68 -4.79,-0.48 c 0.11,2.06 -0.74,4.28 -0.97,6.23 -1.18,0.07 -1.22,-0.74 -1.69,-1.43 -0.91,-1.34 -2.98,-4.28 -3.11,-5.77 -0.01,-0.16 0.55,-0.77 0.38,-1.55 -1.56,-7.54 -4.72,-14.88 -7.59,-21.97 -1.22,-0.2 -0.74,0.11 -1,0.67 -0.84,1.86 -1.59,6.29 -2.36,7.62 -0.3,0.51 -0.1892,1.0015 -0.2192,1.0415 -11.28,-13.69 -25.781,-26.472 -40.121,-36.912 -3.16,-2.3 -6.61,-4.27 -9.78,-6.53 -0.41,-0.3 -1.3,-1.6 -1.7,-0.46 -14.53,-17.38 -38.28,-29.38 -60.96,-30.72 -24.34,-9.82 -50.66,-14.24 -76.8,-16.33 l 20.48,-4.720002 c 31.86,-4.79 64.19,-0.17 95.21,7.350002 22.54,5.47 40.67,12.03 60.43,24.05 47.17,28.68 73.27,53.46 88.7,108.1 10,35.39 14.36,72.97 6.23,109.16 -7.89,35.12 -25.26,68.53 -51.21,93.51 z"
 id="path3" />
<path
 class="cls-3"
 d="m 195.9996,72.1285 c -8.12,13.16 -14.16,31.93 -13.44,47.52 -3.42,0.08 -6.79,1.24 -10.08,2.16 -41.74,11.63 -74.89003,35.22 -101.01003,69.39 -32.04,41.92 -52.55,92.67 -57.88,145.41 -0.67,0.11 -0.65,-0.81 -0.84,-1.31 -14.239996,-38.9 -9.819996,-85.8 -0.93,-125.5 7.39,-33 26.14,-71.36 54.61,-90.83 37.99003,-25.97 83.87003,-41.61 129.56003,-46.84 z"
 id="path4" />
<path
 class="cls-19"
 d="m 276.6396,30.3685 c 22.68,1.34 46.43,13.34 60.96,30.72 16.94,20.26 24.02,47.37 19.2,73.44 -0.52,2.82 -1.37,5.86 -2.16,8.64 -0.54,1.92 -3.22,7.78 -2.4,9.12 0.62,1.01 10.35,7.22 11.53,7.19 2.82,-2.13 5.87,-3.91 8.87,-5.75 1.63,-1 2.87,-2.52 4.89,-3.03 2.02,-0.51 3.64,-0.05 5.33,-0.43 1.69,-0.38 3.99,-2.57 6.56,-3.04 6.72,-1.24 12.95,2.24 13.46,9.38 0.12,1.74 0,3.75 -0.61,5.39 -0.68,1.85 -2.33,2.18 -1.31,4.21 l 2.43,-0.78 c 0,-2.78 -0.18,-6.12 0.45,-8.82 0.63,-2.7 3.49,-6.83 6.21,-7.47 3.75,-0.89 4.93,1.43 6.75,4.11 0.1,0.15 0.28,0.62 0.48,0.96 2.14,10.92 0.21,22.67 -10.12,28.52 -3.4,1.92 -10.05,4.65 -12.9,6.78 -1.28,0.96 -1.88,3.97 -4.82,5.02 -1.66,0.59 -12.6,1.19 -14.64,0.96 -7.35,-0.82 -12.2,-7.46 -15.52,-13.28 -1.41,-2.47 -2.19,-4.9 -2.04,-7.8 -4.77,-1.18 -9.28,-3.92 -13.38,-6.58 -0.55,-0.3 -0.8,-0.08 -1.23,0.25 -0.87,0.68 -3.44,4.52 -4.54,5.8 -5.93,6.93 -12.15,12.5 -19.2,17.76 l -11.44,5.84 c -0.17,3.96 -0.05,7.96 -0.08,11.92 -0.06,7.82 -0.1,15.7 0,23.52 0.02,1.75 -0.05,3.51 0.03,5.26 0.15,0.16 3.17,0.35 3.81,0.5 4.79,1.13 9.15,1.91 13.92,2.88 2.41,0.49 4.86,0.68 7.23,1.17 3.52,0.74 8.97,3.18 11.97,2.67 6.45,-1.1 11.85,-1.25 18.24,-1.92 6.39,-0.67 12.3,-2.05 18.7,-3.62 5.89,-1.44 5.8,-1.55 11.06,-4.06 10.68,-5.12 17,-9.52 26.73,-15.75 3.02,-1.93 8.63,-5.74 12.15,-5.37 4.36,0.46 4.02,8.62 3.86,11.78 -0.74,14.67 -5.3,31.35 -6.74,46.54 -0.67,7.09 -1.19,14.47 -1.46,21.58 -0.62,16.12 3.28,37.17 -14.86,45.14 4.2,2.45 6.36,7.25 7.68,11.76 4.61,15.78 7.79,28.46 15.84,43.2 0.57,1.05 4.15,7.55 4.61,7.65 8.84,-3.25 16.78,-3.26 23.97,3.38 3.77,3.49 13.36,12.97 16.07,16.81 10.17,14.44 -12.52,27.03 -23.1,32.34 -3.78,1.9 -10.52,5.28 -14.43,6.21 -2.3,0.55 -4.95,0.3 -7.23,0.93 -2.9,0.8 -5.23,2.62 -8.91,3.57 -10.56,2.71 -26.31,4.31 -37.05,3.03 l -0.48,-0.48 c -0.46,-0.06 -0.98,0.05 -1.44,0 -4.19,-0.48 -6.23,1.05 -9.84,1 -3.61,-0.05 -9.77,-0.52 -13.38,-1.06 -2.42,-0.36 -5.68,-1.84 -7.76,-1.88 -10.42,-0.21 -19.55,-0.45 -29.49,-4.55 -1.19,-0.49 -3.76,-2.46 -4.57,-2.45 -0.81,0.01 -3.75,1.13 -5.29,1.25 -8.88,0.74 -28.26,-3.18 -37.78,-4.92 -2.54,-0.46 -5.47,-1.93 -7.85,-2.23 -4,-0.51 -9.27,-0.11 -13.88,-0.52 -4.61,-0.41 -10.97,-2.17 -14.47,-2.23 -2.05,-0.03 -5.09,1.05 -7.36,1.26 -0.95,0.09 -1.93,-0.08 -2.88,0 h -1.44 c -0.32,0.02 -0.64,-0.02 -0.96,0 l -1.44,0.48 c -4.44,0.2 -11.2,-0.5 -15.08,0.04 -2.03,0.29 -3.98,1.68 -5.94,2.22 -7.24,1.99 -18.37,6.05 -25.25,2.96 -8.41,-3.78 -9.94,-13.88 -13.01,-21.54 -0.93,0.79 -3.03,1.13 -3.1,2.61 1.94,6.57 5.57,13.89 5.26,20.9 -0.25,5.69 -3.66,12.45 -7.47,16.77 -1.13,1.28 -2.98,2.41 -4.3,3.86 -4.38,4.8 -9.61,12.98 -17.17,11.42 -7.49,-1.55 -13.69,-14.34 -16.75,-20.69 -15.41,-31.92 -25.74,-68.77 -28.23003,-104.25 -0.78,-11.16 -2.56,-22.09 9.27003,-27.68 2.39,-1.13 4.96,-1.8 7.53,-2.31 1.59,-0.32 3.21,-0.43 4.8,-0.72 -1.4,-1.27 -4.21,-3.16 -5.28,-4.56 -2.11,-2.79 -6.3,-13.04 -7.9,-16.82 -3.13,-7.38 -6.41,-15.83 -8.65003,-23.51 -4.03,-13.8 -5.15,-28.24 -8.4,-42.24 -0.29,-1.25 -0.7,-2.3 -0.96,-3.36 -2.78,-11.16 -7.23,-21.31 -10.09,-31.91 -1.43,-5.3 -2.32,-10.64 0.97,-15.38 2.82,-4.07 9.47,-6.38 14.22,-6.9 10.69003,-1.19 21.71003,0.98 32.11003,0.91 1.96,-0.01 4.05,-0.12 5.99,0 4.26,0.26 11.74,1.11 15.95,2.05 5.84,1.31 5.16,1.77 11.65,1.75 5.33,-0.02 18.13,3.31 23.28,5.32 1.74,0.68 4,1.48 5.62,2.3 1.07,0.54 2.39,2.17 3.39,2.41 0.57,0.13 4.25,-0.33 5.39,-0.39 h 0.48 c 0.48,-0.01 0.96,0.02 1.44,0 l 4.8,0.48 c -0.17,-1.16 -2.26,-0.75 -2.88,-0.96 -4.81,-1.56 -7.99,-5.22 -7.2,-10.56 0.19,-1.3 1.7,-3.04 1.81,-3.68 0.13,-0.77 -0.74,-1.88 -0.81,-2.84 -0.34,-4.85 0.8,-7.44 1.91,-11.88 -5.41,-3.37 -10.8,-7.42 -15.39,-11.84 -4.59,-4.42 -6.62,-7.93 -7.14,-14.7 -0.75,-9.74 3.16,-16.61 9.44,-23.57 -0.45,-1.74 -0.27,-3.45 -0.36,-5.21 -0.03,-0.62 -0.5,-1.09 -0.5,-1.16 -0.72,-15.59 5.32,-34.36 13.44,-47.52 17.22,-27.93 47.64,-43.72 80.64,-41.76 z m 45.12,23.04 c -26.82,-22.07 -66.33,-23.6 -95.48,-4.99 -24.78,15.82 -39.64,44.59 -37.96,74.12 0.87,0.89 13.32,-7.75 16.03,-7.66 8.86,0.28 14.56,19 6.22,23.91 -1.23,0.72 -2.84,0.91 -4.18,1.58 -4.26,2.12 -12.27,5.91 -10.64,11.94 0.56,2.07 4.76,9.32 6.25,11.03 4.75,5.44 5.98,1.4 10.81,-0.72 5.39,-2.37 12.35,-3.28 17.43,0.31 2.06,1.46 2.17,3.17 3.47,4.69 1.57,1.81 5.22,3.94 7.18,5.78 7.36,6.93 10.62,14.79 11.33,24.91 38.94,9.18 79.75,-12.12 94.72,-48.91 9.84,-24.19 7.83,-51.67 -5.6,-74.05 -4.45,-7.42 -11.74,-17.76 -20.91,-18.93 -5.16,-0.66 -8.74,0.48 -13.55,1.79 -0.69,-2.72 1.88,-3.61 4.06,-4.34 3.71,-1.24 7,-1.16 10.82,-0.47 z m -117.28,64.91 c -1.16,0.1 -8.24,4.22 -9.69,5.16 -12.87,8.34 -23.64,23.56 -11.76,37.71 3.52,4.19 16.55,14.33 21.45,16.47 2.47,1.08 5.93,0.11 6.34,-2.67 0.29,-1.92 -5.95,-4.93 -7.58,-6.17 -3.64,-2.78 -9.6,-7.52 -11.32,-11.72 -3.64,-8.91 3.17,-16.03 10.95,-19.28 3.91,-1.64 7.23,-0.65 7.96,-5.95 0.48,-3.45 -0.42,-8 -2.59,-10.77 -0.68,-0.86 -2.68,-2.86 -3.77,-2.76 z m 180.16,35.89 c 2.75,-2.27 6.62,-2.63 10.08,-2.4 -1.58,1.5 -3.8,1.35 -5.73,2.67 -0.77,0.52 -4.41,4.13 -4.77,4.83 -1.1,2.13 -1.06,6.03 1.85,6.42 1.28,-4.27 4.56,-7.21 9.27,-6.14 1.53,0.35 2.98,3.18 3.93,1.81 3.2,-10.82 -8.04,-14.62 -15.11,-7.67 -7.07,-1.28 -12.38,3.05 -12.96,10.08 0.35,0.35 3.62,-0.64 3.84,0.48 -9.69,3.06 -15.52,18.11 -6.39,24.88 5.81,4.31 8.66,3.37 15.33,3.01 0.9,-0.05 1.74,0.48 2.77,0.42 2.39,-0.15 5.62,-3.52 5.55,-5.93 -0.17,-5.94 -5.36,-12.36 -10.51,-14.96 -10.83,-5.46 -14.76,3.57 -4.97,9.77 0.87,0.55 4.33,1.83 4.47,2.04 0.16,0.23 -0.45,1.08 -0.37,1.59 0.17,1.01 2.06,1.36 1.81,2.7 -0.3,0.29 -3.56,-1.51 -3.97,-1.9 -0.87,-0.83 -0.87,-2.24 -1.82,-3.12 -1.24,-1.15 -4.11,-1.79 -5.75,-3.37 -2.69,-2.59 -3.47,-6.63 -0.95,-9.62 3.02,-3.58 8.45,-2.37 12.49,-1.67 0.55,0.82 0.17,1.64 2.4,1.44 0.36,-1.44 -1.52,-1.29 -2.4,-1.44 -3.59,-5.42 -3.21,-9.7 1.92,-13.92 z m 19.68,25.92 c 8.74,-2.95 15.88,-16.76 10.94,-25.1 -1.25,-2.11 -2.4,-3.47 -5.16,-2.47 -4.94,1.79 -4.45,13.2 -4.83,17.5 -1.1,-0.58 -0.68,-1.89 -2.39,-1.44 0.17,3.94 2.18,7.31 1.44,11.52 z m -53.99,-25.44 c -0.69,1.83 -4.98,7.88 -4.52,9.28 0.3,0.91 10.5,6.4 11.66,6.05 l 4.11,-8.32 -11.25,-7.02 z m 17.99,5.76 c -0.46,-0.55 -2.76,1.98 -3.12,2.39 -3.8,4.27 -5.12,9.22 -4.55,14.88 1.5,0.4 0.88,-1.74 1.17,-2.9 0.38,-1.51 0.75,-2.9 1.45,-4.31 1.83,-3.7 5.79,-5.07 5.06,-10.06 z m 26.4,24.96 c 9.14,-2.15 8.52,-14.48 3.56,-20.6 -4.07,-5.02 -8.57,-2.41 -9.58,3.29 -1.01,5.7 0.87,4.86 3.34,8.71 1.62,2.52 2.87,5.52 2.68,8.6 z m -181.92,5.76 c 1.37,0.43 2.53,0.27 4.42,1.1 1.89,0.83 3.29,2.44 5.18,3.22 l -2.44,-7.16 c -1.58,0.21 -2.85,0.53 -4.51,0.45 -0.53,-0.02 -2.17,-0.17 -2.16,-0.96 l 15.35,-4.8 c 1.09,1 -5.05,4 -5.24,4.63 l 1.41,4.01 c 4.41,-2.75 10.09,-2.67 13.2,1.92 h 0.71 c 0.59,-1.93 2.18,-4.1 4.33,-4.32 -1.29,4.35 -2.62,8.81 -2.4,13.44 -1.12,0.24 -0.77,-0.14 -1.07,-0.62 -1.46,-2.27 -2.14,-5.3 -4.21,-7.29 -3.67,-3.54 -7.73,-2.82 -9.36,2.14 -2.82,8.58 5.01,18.41 14.3,16.7 3.14,-0.58 6.45,-5.55 7.44,-8.4 2.44,-6.99 -0.19,-17.78 -4.29,-23.81 -2.32,-3.42 -5.41,-5.66 -8.33,-8.48 -1.29,-0.29 -1.85,4.88 -4.55,3.83 3.14,-9.61 -3.93,-14.54 -12.99,-12.27 -1.36,0.34 -6.91,2.92 -7.66,3.86 -0.54,0.68 -0.53,0.31 0,0.98 0.83,1.04 3.49,2.48 4.75,3.19 l 0.07,0.6 c -0.11,3.05 -5.63,8.5 -8.77,7.88 -1.6,-0.32 -5,-3.5 -6.36,-1.83 -1.26,1.55 -2,6.39 -1.65,8.38 0.13,0.73 0.79,1.25 0.92,1.97 0.53,2.99 -1.86,4.11 -1.93,6.71 -0.2,7.83 16.05,7.9 20.84,4.95 5.64,-3.48 -1.68,-7.84 -4.97,-9.53 v -0.48 z m 123.36,128.64 v 10.32 c 0,0.8 1.03,5.42 1.41,6.27 0.91,2.02 3.46,4.27 5.53,5.03 5.22,1.92 24,1.06 30.26,0.45 2.21,-0.21 4.95,-1.63 6.79,-1.76 1.44,-0.1 3.76,0.72 5.22,0.71 6.22,-0.04 23.83,-2.87 28.99,-5.96 11.49,-6.87 8.94,-25.23 9.15,-36.45 0.24,-13.1 1.69,-26.73 3.45,-39.75 1.24,-9.16 6.01,-27.75 4.15,-35.97 -0.87,-3.84 -4.42,-3.38 -7.29,-2.21 -6.65,2.7 -14.64,9.78 -21.56,13.48 -3.31,1.77 -13.09,7.07 -16.04,7.96 -10.52,3.14 -22.63,3.56 -33.42,4.5 -2.43,0.21 -9.55,2.77 -10.07,2.72 -0.76,-0.07 -2.01,-1.36 -3.05,-1.72 -6.61,-2.32 -13.97,-2.79 -20.87,-4.09 -5.13,-0.97 -14.1,-3.95 -18.85,-3.71 -1.42,0.07 -3.94,1.53 -4.75,1.37 -0.54,-0.11 -3.35,-2.69 -4.37,-3.28 -7.64,-4.37 -27.33,-10.63 -36.24,-12.72 -2.35,-0.55 -6.12,-0.35 -7.8,-0.83 -3.85,-1.09 -10.8,-6.81 -15.37,-6.02 -1.18,0.2 -2.27,1.18 -3.96,1.35 -2.81,0.28 -4.01,-0.96 -5.75,-0.98 -3.12,-0.05 -4.34,2.75 -9,1.32 -4.66,-1.43 -6.25,-5.54 -8.42,-9.45 -2.25,-0.42 -4.79,-0.75 -7.08,-0.49 -1.46,0.17 -3.91,1.58 -4.69,1.37 -0.93,-0.24 -4.15,-3.44 -5.46,-4.18 -5.39,-3.02 -18.7,-5.8 -24.95,-6.25 -2.31,-0.17 -4.39,0.52 -6.12,0.4 -1.83,-0.12 -4.85,-1.82 -6.9,-2.26 -4.55,-0.98 -13.47,-1.94 -18.12,-2.04 -2.58,-0.05 -5.07,0.88 -7.13,0.78 -1.48,-0.07 -3.35,-1.05 -4.92,-1.22 -7.51,-0.8 -24.12003,-1.67 -30.60003,1.94 -2.09,1.16 -4.78,4.5 -4.95,6.95 -0.45,6.32 4.28,16.02 6.21,22.37 8.89,29.22 9.67,56.58 21.73003,85.31 4.06,9.68 6.73,20.67 18.71,21.61 9.21,0.72 18.73,-0.94 27.81,-0.93 6.96,0 21.23,1.16 26.82,-2.5 2.57,-1.68 3.23,-4.01 5.12,-6.16 0.37,5.84 6.24,8.27 11.33,9.07 7.41,1.16 14.56,-0.08 21.56,0.14 3.75,0.12 9.41,1.71 13.89,1.85 3.56,0.11 10.14,-1.06 12.43,-0.84 0.87,0.08 2.84,1.2 4.22,1.47 7.13,1.39 13.76,0.77 20.8,1.28 5.22,0.38 11.4,1.99 16.8,1.96 1.8,-0.01 4.53,-0.98 6.26,-0.92 1.73,0.06 4.68,1.56 6.75,1.79 4.16,0.47 12.79,1 16.62,-0.07 8.56,-2.4 4.86,-13.47 5.64,-20.04 l 10.08,-0.96 z m -33.12,-120 -17.18,4.17 -0.61,0.85 0.27,27.14 c 2.33,1.45 4.88,2.47 7.3,3.74 0.71,0.37 1.34,1.29 1.93,1.46 1.61,0.47 5.31,-1.21 7.51,0.04 l 0.78,-0.68 z m -80.64,1.92 -6.2,2.92 c -1.3,1.83 8.62,15.89 13.09,11.04 1.19,-1.3 -1.34,-2.22 -2.33,-3.39 -2.51,-2.99 -4.82,-6.48 -4.56,-10.56 z m 47.52,3.84 -17.28,-1.44 v 16.56 l 17.28,6 z m 10.56,2.4 c -0.03,-1.12 0.03,-2.25 0,-3.36 l -5.76,0.48 c -0.02,0.32 0.02,0.64 0,0.96 -0.26,5.42 -0.06,11.34 0,16.8 0.02,1.9 -0.07,3.82 0.05,5.71 l 5.71,1.49 c 0.02,-1.75 -0.02,-3.52 0,-5.28 0.07,-5.57 0.16,-11.24 0,-16.8 z m -61.45,8.63 -6.71,-10.81 -5.28,-0.22 c -0.44,6.22 4.95,15.07 11.99,11.02 z m 28.81,1.93 c 0.08,-1.4 0.1,-3.18 0,-4.57 -0.04,-0.52 0.26,-1.6 -0.71,-1.19 -1.81,0.77 -4.41,4.29 -7.44,3.84 l 5.28,2.87 2.88,0.96 c 0.03,-0.63 -0.03,-1.28 0,-1.92 z m 85.92,116.16 c -0.86,-3.67 -0.99,-7.76 -0.96,-11.52 l -3.35,0.48 c -0.28,4.26 0.57,8.78 -0.48,12.96 -0.22,0.86 -0.41,1.47 -0.86,2.25 -0.78,1.35 -2.3,1.98 -2.5,3.51 h 12.96 c -0.93,-1.26 -2.46,-2.32 -3.28,-3.68 -0.67,-1.12 -1.22,-2.74 -1.52,-4 z m -143.04,-0.48 c -0.88,-1.98 -2.54,-1.63 -3.84,-0.23 z m 212.64,82.07 -5.51,0.51 c -6.67,-15.7 -11.8,-31.92 -15.86,-48.49 -1.64,-6.72 -1.83,-18.39 -8.69,-21.55 -3.7,-1.7 -13.48,-1.44 -17.7,-1.01 -1.75,0.18 -3.96,1.35 -5.28,1.36 -1.53,0.02 -4.35,-1.19 -6.26,-1.36 -7.09,-0.64 -18.37,-1.14 -25.4,-0.98 -4.97,0.11 -10.08,2.11 -13.88,5.26 -1.83,-1.76 -4.09,-3.62 -6.44,-4.64 -7.45,-3.23 -29.24,-4.31 -37.78,-3.97 -3.29,0.13 -2,0.73 -5.69,-0.08 -5.93,-1.31 -14.68,-2.37 -20.71,-1.84 -4.31,0.38 -3.65,1.56 -8.02,0.33 -5.16,-1.46 -13.49,-2.14 -18.88,-1.79 -1.87,0.12 -5.47,1.3 -6.7,1.26 -1.62,-0.05 -5.29,-1.56 -7.66,-1.74 -5.29,-0.41 -17.59,-0.49 -22.33,1.23 -1.29,0.47 -3.06,2.12 -4.09,2.12 -0.87,0 -2.8,-1.33 -4.07,-1.66 -10.05,-2.57 -33.16,-1.21 -43.93,0.25 -10.77,1.46 -16.38,5.58 -16.1,16.58 0.94,37.22 12.67,85.15 30.33,117.99 3.9,7.26 10.09,15.5 18.62,8.19 2.94,-2.52 13.24,-12.93 14.8,-15.92 5.32,-10.19 -2.51,-20.87 -4.69,-30.83 3.8,-1.11 7.73,-3.34 10.8,-5.76 3.84,8.1 4.44,24.44 16.31,24.97 3.74,0.17 14.77,-2.65 18.71,-3.89 1.27,-0.4 5.35,-2.63 5.78,-2.67 0.58,-0.05 1.83,0.73 2.88,0.78 6.16,0.29 17.48,0.15 23.31,-1.17 0.96,-0.22 1.89,-1.18 2.61,-1.21 0.64,-0.02 2.46,1.02 3.5,1.28 5.13,1.3 12.84,2.41 18.11,2.44 1.79,0 5.13,-0.91 6.74,-0.81 1.31,0.08 6.53,2.25 8.75,2.7 8.6,1.71 29.85,5.49 37.75,4.41 1.93,-0.27 3.24,-1.35 4.85,-2.25 2.6,2.46 5.62,4.18 8.99,5.3 8.21,2.71 16.23,2.56 24.58,2.74 2.14,0.04 4.97,1.55 7.27,1.89 3.54,0.52 10.82,1.05 14.35,1.01 3.81,-0.05 5.17,-1.85 9.26,-1.09 10.55,1.95 30.55,0.28 40.91,-2.98 2.12,-0.67 4.74,-2.72 6.1,-3.02 1.97,-0.44 4.82,-0.23 6.98,-0.7 8.3,-1.79 32.33,-14.26 36.57,-21.51 5.23,-8.96 -5.14,-15.98 -10.53,-21.56 -3.31,-3.42 -5.38,-7.51 -9.99,-9.69 -6.11,-2.89 -11.72,-0.26 -17.37,2.37 -8.2,-12.57 -14.64,-27.3 -19.08,-41.76 -1.5,-4.88 -3.94,-18.35 -7.05,-21.27 -0.59,-0.56 -2.62,-1.72 -3.37,-1.91 -3.74,-0.95 -17,0.77 -20.51,2.56 -1.66,0.84 -4.1,3.3 -4.44,5.16 -0.96,5.21 2.42,17.43 3.86,22.98 3.85,14.89 9.13,29.43 15.32,43.47 z m -18.72,-72.95 c -3.1,-0.35 -5.14,-0.61 -8.03,0.85 -1.64,0.83 1.13,1.95 2.04,2.97 0.52,0.59 1.98,3.64 2.63,2.89 -0.95,-1.53 3.84,-6.33 3.36,-6.72 z m -82.08,0.48 -1.44,-0.48 0.96,0.48 c 1.18,2 2.72,2.35 4.66,1.08 0.47,-0.3 0.86,0.04 0.61,-1.08 h -4.8 z"
 id="path5" />
<path
 class="cls-3"
 d="m 89.43957,248.7685 c 3.25,13.99 4.37,28.44 8.4,42.24 2.24003,7.68 5.52003,16.13 8.65003,23.51 1.6,3.78 5.79,14.03 7.9,16.82 l 0.48,5.28 c -2.57,0.52 -5.14,1.18 -7.53,2.31 -11.83003,5.59 -10.05003,16.52 -9.27003,27.68 2.49003,35.48 12.82003,72.33 28.23003,104.25 3.06,6.34 9.26,19.14 16.75,20.69 7.56,1.56 12.79,-6.61 17.17,-11.42 1.32,-1.45 3.17,-2.58 4.3,-3.86 3.8,-4.32 7.22,-11.09 7.47,-16.77 0.02,0.89 0.6,1.38 1.18,1.94 2.79,2.69 6.57,5.64 9.63,8.13 51.26,41.69 116.16,64.44 182.63,63.38 l -21.49,6.58 c -42.87,8.78 -90.61,7.86 -132.98,-3.55 -31.64,-8.52 -70.72,-39.36 -92.74,-63.26 -15.4,-16.72 -23.19003,-31.65 -31.07003,-52.93 -20.46,-55.27 -25.13,-108.99 -2.27,-164.26 0.95,-2.3 3.06,-5.43 3.58,-7.7 l 0.96,0.96 z"
 id="path6" />
<path
 class="cls-3"
 d="m 480.1596,422.5285 c -2.71,-3.84 -12.3,-13.33 -16.07,-16.81 -7.18,-6.64 -15.12,-6.63 -23.97,-3.38 -0.45,-0.1 -4.03,-6.6 -4.61,-7.65 4.55,-2.95 9.19,-6.85 13.21,-10.55 54.02,-49.69 79.61,-124.06 82.31,-196.1 0.02,-0.58 -0.36,-1.79 0.47,-1.67 6.34,18.79 11.59,38.35 14.73,57.99 9.29,58.01 -10.46,115.53 -47.86,159.68 -5.62,6.63 -12.16,12.31 -18.23,18.49 z"
 id="path7" />
<path
 class="cls-2"
 d="m 387.5196,468.1285 c 0.28,1.36 -0.67,0.9 -1.51,1.1 -54.99,12.9 -98.66,10.96 -148.9,-16.07 -0.67,-0.36 -1.52,-0.19 -1.26,-1.35 2.27,-0.21 5.32,-1.3 7.36,-1.26 3.5,0.06 9.95,1.83 14.47,2.23 4.52,0.4 9.88,0 13.88,0.52 2.38,0.3 5.31,1.76 7.85,2.23 9.52,1.74 28.9,5.66 37.78,4.92 1.54,-0.13 4.45,-1.24 5.29,-1.25 0.84,-0.01 3.37,1.96 4.57,2.45 9.94,4.1 19.07,4.34 29.49,4.55 2.08,0.04 5.34,1.52 7.76,1.88 3.61,0.54 9.75,1.01 13.38,1.06 3.63,0.05 5.65,-1.48 9.84,-1 z"
 id="path8" />
<path
 class="cls-2"
 d="m 181.1196,164.2885 c 4.59,4.41 9.98,8.47 15.39,11.84 -1.12,4.44 -2.26,7.03 -1.91,11.88 0.07,0.96 0.93,2.07 0.81,2.84 -0.11,0.64 -1.61,2.38 -1.81,3.68 -3.9,1.73 -7.63,4.18 -11.04,6.72 -5.16,-2.01 -17.95,-5.33 -23.28,-5.32 -6.49,0.02 -5.81,-0.44 -11.65,-1.75 -4.21,-0.95 -11.69,-1.79 -15.95,-2.05 2.63,-2.84 6.33,-5.36 9.64,-7.4 12.44,-7.69 24.85,-13.77 38.4,-19.22 0.74,-0.3 1.68,0.05 1.4,-1.22 z"
 id="path9" />
<path
 class="cls-2"
 d="m 89.43957,248.7685 -0.96,-0.96 c 0.15,-0.66 -0.11,-1.67 0,-2.4 0.26,1.06 0.67,2.11 0.96,3.36 z"
 id="path10" />
<path
 class="cls-2"
 d="m 230.5596,451.8085 c -0.08,0 -0.39,0.43 -1.44,0.48 z"
 id="path11" />
<path
 class="cls-2"
 d="m 232.9596,451.8085 c -0.75,0.06 -1.29,-0.01 -1.44,0 z"
 id="path12" />
<path
 class="cls-2"
 d="m 389.4396,468.6085 c -0.37,-0.04 -0.45,-0.48 -0.48,-0.48 z"
 id="path13" />
<path
 class="cls-24"
 d="m 389.2696,104.8985 c -0.19,0.34 -0.6492,1.1962 -0.7892,1.7862 h -3.84 l 1.41,8.12 -3.75,1.05 c -0.83,1.19 2.81,10.1 3.56,11.93 0.35,0.86 5.9,13.25 6.46,12.5 l 0.8,-12.37 3.54,-1.86 -0.47,-6.1 0.76,-0.71 3.04,-0.07 c 0.12,1.49 2.2,4.43 3.11,5.77 0.47,0.69 0.51,1.5 1.69,1.43 -0.23,1.95 -0.4,4.92 -0.5,6.94 -0.2,4.22 0.19,8.51 0.02,12.74 1.12,0.24 0.77,-0.14 1.07,-0.62 1.46,-2.28 2.66,-5.39 4.2,-7.69 0.31,-0.46 0.6136,-1.1385 0.6336,-1.1785 1.42,4.33 4.1364,9.1185 5.8364,13.338 0.29,0.73 1.28,2.69 0.73,3.35 -1.82,-2.69 -3.01,-5.01 -6.75,-4.11 -2.72,0.65 -5.59,4.83 -6.21,7.47 h -0.96 c -0.51,-7.14 -6.75,-10.62 -13.46,-9.38 -2.57,0.47 -4.91,2.68 -6.56,3.04 -1.65,0.36 -3.38,-0.07 -5.33,0.43 -1.95,0.5 -3.26,2.03 -4.89,3.03 -1.05,0.11 -1.8,-1.5 -2.31,-2.25 -3.69,-5.43 -7.31,-10.75 -11.7,-15.66 -0.55,-0.62 -0.74,-1.33 -1.83,-1.29 4.82,-26.07 -2.26,-53.18 -19.2,-73.44 0.4,-1.14 1.29,0.16 1.7,0.46 3.17,2.27 6.63,4.24 9.78,6.53 14.34,10.43 27.204,21.224 38.484,34.924 z m -10.449,17.566 -0.18,-1.38 c -4.32,-4.39 -7.84,-10.4 -12.49,-14.39 -0.42,-0.36 -3.28,-2.76 -3.58,-2.41 l 0.41,11.21 c -0.46,1.34 -3,0.58 -2.82,1.96 l 3.85,6.27 -2.83,3.26 c 5.06,7.11 11.78,12.8 18.65,18.09 l -3.81,-11.78 2.37,-3.32 -2.34,-5.69 z"
 id="path14" />
<path
 class="cls-18"
 d="m 431.1996,214.6885 c -3.52,-0.37 -9.13,3.44 -12.15,5.37 -9.74,6.23 -16.05,10.63 -26.73,15.75 l 0.5,-15.14 c -0.44,-8.83 -1.64,-17.49 -3.38,-26.14 2.94,-1.05 3.54,-4.07 4.82,-5.02 2.85,-2.13 9.5,-4.85 12.9,-6.78 10.33,-5.85 12.26,-17.6 10.12,-28.52 2.08,3.6 3.71,7.93 5.02,12.02 4.98,15.53 7.85,32.2 8.9,48.46 z"
 id="path15" />
<path
 class="cls-7"
 d="m 404.7996,126.3685 c 0.23,-1.95 1.08,-4.17 0.97,-6.23 l 4.79,0.48 1.94,-7.68 c 1.19,-0.29 2.14,0.9 3.15,0.96 1.77,0.11 6.09,-5.6 7.88,-6.97 0.48,-0.37 0.61,-0.93 1.44,-0.71 l -2.88,24 -4.76,-0.44 -2.03,5.66 c -1.25,0.36 -3.74,-0.48 -4.51,0.55 -0.32,0.42 -0.6322,0.7178 -0.7422,0.9178 -0.03,0.04 -0.1378,0.4022 -0.4378,0.8522 -1.54,2.29 -2.74,5.41 -4.2,7.69 -0.3,0.47 0.05,0.86 -1.07,0.62 0.17,-4.22 -0.23,-8.52 -0.02,-12.74 0.1,-2.02 0.27,-4.99 0.5,-6.94 z m 15.84,0.96 1.92,-16.32 -5.33,7.62 -3.78,-1.39 -1.93,7.2 -3.83,-1.44 c -0.63,5.27 -1.85,10.48 -1.44,15.84 l 3.42,-6.17 c 1.07,-0.68 3.49,1.21 4.5,-0.07 l 2.18,-6.71 4.3,1.42 z"
 id="path16" />
<path
 class="cls-7"
 d="m 389.2096,104.5185 c 0,0 -0.081,-0.074 0.2192,-0.5738 0.78,-1.33 1.52,-5.76 2.36,-7.62 0.25,-0.56 -0.23,-0.87 1,-0.67 2.87,7.09 6.03,14.43 7.59,21.97 0.16,0.78 -0.4,1.39 -0.38,1.55 l -3.04,0.07 -0.76,0.71 0.47,6.1 -3.54,1.86 -0.8,12.37 c -0.56,0.75 -6.11,-11.63 -6.46,-12.5 -0.75,-1.83 -4.39,-10.74 -3.56,-11.93 l 3.75,-1.05 -1.41,-8.12 h 3.84 c 0.13,-0.59 0.4531,-1.3292 0.6431,-1.6692 z m 8.8692,12.246 -5.28,-15.83 -1.95,9.56 -3.32,-0.44 0.96,8.16 c -0.78,0.3 -3.45,-0.75 -3.37,0.72 0.24,4.43 3.67,9.85 4.81,14.16 l 1,-7.63 3.79,-0.53 -0.96,-8.16 h 4.32 z"
 id="path17" />
<path
 class="cls-17"
 d="m 403.3596,416.2785 c -6.19,-14.04 -11.47,-28.59 -15.32,-43.47 -1.43,-5.55 -4.82,-17.77 -3.86,-22.98 0.34,-1.86 2.78,-4.31 4.44,-5.16 3.51,-1.79 16.77,-3.51 20.51,-2.56 0.75,0.19 2.78,1.35 3.37,1.91 3.1,2.93 5.55,16.4 7.05,21.27 4.44,14.45 10.88,29.19 19.08,41.76 5.66,-2.63 11.27,-5.26 17.37,-2.37 4.6,2.18 6.68,6.27 9.99,9.69 5.39,5.58 15.77,12.6 10.53,21.56 -4.24,7.26 -28.27,19.72 -36.57,21.51 -2.16,0.47 -5.01,0.26 -6.98,0.7 -1.35,0.3 -3.97,2.36 -6.1,3.02 -10.36,3.26 -30.36,4.93 -40.91,2.98 -4.09,-0.76 -5.45,1.04 -9.26,1.09 -3.53,0.04 -10.81,-0.49 -14.35,-1.01 -2.31,-0.34 -5.13,-1.84 -7.27,-1.89 -8.36,-0.17 -16.38,-0.02 -24.58,-2.74 -3.37,-1.11 -6.39,-2.84 -8.99,-5.3 -1.61,0.9 -2.92,1.98 -4.85,2.25 -7.9,1.09 -29.15,-2.69 -37.75,-4.41 -2.22,-0.44 -7.43,-2.62 -8.75,-2.7 -1.61,-0.1 -4.95,0.82 -6.74,0.81 -5.27,-0.03 -12.97,-1.14 -18.11,-2.44 -1.03,-0.26 -2.86,-1.3 -3.5,-1.28 -0.71,0.02 -1.64,0.99 -2.61,1.21 -5.83,1.33 -17.15,1.46 -23.31,1.17 -1.05,-0.05 -2.3,-0.83 -2.88,-0.78 -0.43,0.04 -4.51,2.27 -5.78,2.67 -3.94,1.23 -14.97,4.05 -18.71,3.89 -11.87,-0.53 -12.47,-16.87 -16.31,-24.97 -3.07,2.42 -7,4.65 -10.8,5.76 2.17,9.96 10.01,20.64 4.69,30.83 -1.56,2.99 -11.86,13.4 -14.8,15.92 -8.53,7.3 -14.71,-0.93 -18.62,-8.19 -17.65,-32.84 -29.38,-80.77 -30.33,-117.99 -0.28,-11 5.85,-15.19 16.1,-16.58 10.77,-1.46 33.88,-2.82 43.93,-0.25 1.27,0.32 3.21,1.66 4.07,1.66 1.03,0 2.8,-1.65 4.09,-2.12 4.74,-1.72 17.04,-1.63 22.33,-1.23 2.37,0.18 6.05,1.7 7.66,1.74 1.23,0.04 4.83,-1.14 6.7,-1.26 5.4,-0.35 13.73,0.33 18.88,1.79 4.38,1.24 3.71,0.06 8.02,-0.33 6.03,-0.53 14.78,0.52 20.71,1.84 3.69,0.82 2.4,0.22 5.69,0.08 8.54,-0.35 30.33,0.73 37.78,3.97 2.35,1.02 4.6,2.88 6.44,4.64 3.8,-3.15 8.91,-5.15 13.88,-5.26 7.03,-0.16 18.32,0.35 25.4,0.98 1.91,0.17 4.73,1.38 6.26,1.36 1.32,-0.02 3.53,-1.19 5.28,-1.36 4.22,-0.43 14.01,-0.7 17.7,1.01 6.86,3.16 7.04,14.84 8.69,21.55 4.05,16.58 9.19,32.8 15.86,48.49 l 5.51,-0.51 z m -210.24,-69.11 h -15.6 c -1.73,2.26 -0.29,5.86 -0.22,8.38 0.36,12.83 0.15,25.02 1.48,37.88 1.75,16.88 5.47,33.7 10.77,49.76 l 13.33,-2.5 0.78,-1.08 c -6.13,-20.74 -8.74,-42.29 -10.08,-63.86 z m 27.76,1.04 c -2.22,0.37 -12.65,-1.52 -13.63,-0.11 -0.05,23.07 0.73,46.4 4.74,69.24 1.27,7.21 3.04,14.34 4.7,21.46 l 15.31,-0.44 c -2.1,-8.48 -3.92,-17.09 -5.2,-25.76 -0.19,-1.29 -2.14,-14.54 -1.28,-14.56 6.66,13.9 14.29,27.32 21.96,40.68 l 13.32,1.56 c -6.74,-29.72 -9.82,-60.2 -10.07,-90.72 l -14.88,-0.48 1.2,37.44 -16.16,-38.32 z m -64.77,109.77 -10.4,-29.47 c 7.17,-4.45 20.31,-2.93 21.84,-13.54 1.14,-7.91 -2.51,-22.74 -3.23,-31.56 -0.64,-7.82 -0.23,-16.3 -0.97,-23.99 -0.54,-5.67 -3.28,-10.65 -9.36,-11.28 -3.76,-0.39 -9.91,0.25 -13.91,0.48 -7.6,0.44 -15.2,1.56 -22.81,1.91 0.68,16.11 1.7,32.2 4.47,48.09 4.16,23.78 12.1,46.62 21.93,68.55 l 12.43,-9.19 z m 154.93,-13.53 c 1.98,-2.07 1.82,-6.44 1.54,-9.14 -0.5,-4.93 -6.01,-28.96 -8.02,-32.79 -1.13,-2.17 -2.53,-3.24 -4.4,-4.71 1.29,-1.13 2.29,-2.32 2.66,-4.05 0.96,-4.55 -1.41,-21.61 -2.24,-27.09 -0.83,-5.48 -2.47,-12.59 -8.94,-14.1 l -27.97,-2.04 c 0.26,30.69 3.95,61.37 11.11,91.14 11.24,1.19 22.42,3.72 33.68,4.28 0.55,-0.12 2.19,-1.09 2.58,-1.5 z m 94.72,-93.44 -12,1.93 c 6.61,33.45 20.42,65 38.66,93.61 l 0.72,0.28 c 10.94,-3.63 21.87,-8.08 31.17,-14.93 l -14.73,-17.94 -16.24,6.55 c -13.11,-21.19 -22.66,-44.92 -27.59,-69.49 z m -60,4.32 -27.56,-0.92 c -3.09,0.54 -4.58,2.29 -5.35,5.21 -1.75,6.69 1.97,25.14 3.3,32.76 3.38,19.3 8.11,38.59 14.44,57.08 l 15.64,1.87 -8.64,-27.35 9.63,0.69 9.65,28.03 15.76,1.04 c -12.63,-31.58 -22.85,-64.45 -26.88,-98.4 z m 23.52,-0.48 -12.48,0.48 c 4.66,33.88 15.66,66.49 29.32,97.64 0.84,1.18 3.59,0.83 5.02,0.78 3.98,-0.15 8.95,-0.56 12.94,-0.98 5.66,-0.6 11.47,-1.75 17.04,-2.88 l -12.07,-22.96 c -0.62,-0.39 -12.52,1.72 -14.57,1.84 -1.06,0.06 -3.19,0.31 -3.84,-0.47 -9.61,-23.62 -17.71,-48.08 -21.36,-73.44 z"
 id="path18" />
<path
 class="cls-20"
 d="m 336.1596,319.8085 -10.08,0.96 c -0.79,6.57 2.91,17.64 -5.64,20.04 -3.84,1.08 -12.46,0.54 -16.62,0.07 -2.08,-0.23 -5.01,-1.73 -6.75,-1.79 -1.74,-0.06 -4.46,0.91 -6.26,0.92 -5.41,0.03 -11.59,-1.57 -16.8,-1.96 -7.04,-0.52 -13.66,0.1 -20.8,-1.28 -1.38,-0.27 -3.35,-1.38 -4.22,-1.47 -2.29,-0.22 -8.87,0.95 -12.43,0.84 -4.48,-0.14 -10.15,-1.73 -13.89,-1.85 -7,-0.22 -14.15,1.02 -21.56,-0.14 -5.09,-0.8 -10.96,-3.23 -11.33,-9.07 -1.89,2.15 -2.55,4.48 -5.12,6.16 -5.59,3.66 -19.86,2.51 -26.82,2.5 -9.08,0 -18.61,1.65 -27.81,0.93 -11.98,-0.94 -14.65,-11.93 -18.71,-21.61 -12.05003,-28.73 -12.84003,-56.09 -21.73003,-85.31 -1.93,-6.35 -6.66,-16.05 -6.21,-22.37 0.18,-2.45 2.86,-5.79 4.95,-6.95 6.48,-3.61 23.09003,-2.74 30.60003,-1.94 1.57,0.17 3.43,1.16 4.92,1.22 2.06,0.09 4.55,-0.84 7.13,-0.78 4.66,0.09 13.58,1.06 18.12,2.04 2.05,0.44 5.07,2.14 6.9,2.26 1.74,0.12 3.81,-0.57 6.12,-0.4 6.25,0.45 19.55,3.23 24.95,6.25 1.31,0.74 4.53,3.93 5.46,4.18 0.78,0.2 3.24,-1.21 4.69,-1.37 2.29,-0.26 4.82,0.07 7.08,0.49 2.17,3.92 3.7,8.01 8.42,9.45 4.72,1.44 5.87,-1.37 9,-1.32 1.74,0.03 2.94,1.26 5.75,0.98 1.7,-0.17 2.78,-1.15 3.96,-1.35 4.57,-0.78 11.52,4.93 15.37,6.02 1.68,0.48 5.45,0.28 7.8,0.83 8.91,2.09 28.6,8.35 36.24,12.72 1.02,0.58 3.83,3.17 4.37,3.28 0.81,0.16 3.33,-1.29 4.75,-1.37 4.75,-0.24 13.72,2.74 18.85,3.71 6.89,1.3 14.26,1.78 20.87,4.09 1.04,0.37 2.29,1.65 3.05,1.72 0.52,0.05 7.64,-2.51 10.07,-2.72 10.79,-0.94 22.9,-1.36 33.42,-4.5 2.95,-0.88 12.73,-6.19 16.04,-7.96 6.92,-3.69 14.92,-10.77 21.56,-13.48 2.87,-1.17 6.42,-1.63 7.29,2.21 1.86,8.22 -2.91,26.81 -4.15,35.97 -1.76,13.02 -3.2,26.66 -3.45,39.75 -0.21,11.21 2.33,29.58 -9.15,36.45 -5.16,3.08 -22.77,5.92 -28.99,5.96 -1.46,0 -3.77,-0.81 -5.22,-0.71 -1.83,0.13 -4.57,1.55 -6.79,1.76 -6.26,0.61 -25.04,1.47 -30.26,-0.45 -2.07,-0.76 -4.62,-3.01 -5.53,-5.03 -0.38,-0.85 -1.41,-5.47 -1.41,-6.27 v -10.32 z m -213.66,-108.9 c -6.69,-0.01 -13.19,-0.59 -19.87,-0.06 l -0.7,0.7 c 4.68,13.97 8.45,28.32 10.89,42.88 1.79,10.69 2.41,21.42 4.97,31.99 3.18,13.12 8.76,25.7 14.69,37.73 l 17.12,-0.58 4.87,-11.44 4.55,11.29 16.73,0.15 c 4.73,-10.07 9.35,-20.48 11.46,-31.5 2.27,-11.87 1.58,-23.86 0.62,-35.85 -1.02,-12.74 -3.03,-25.46 -5.15,-38.05 l -0.94,-0.98 -17.43,-2.49 c 1.96,8.63 3.54,17.44 4.73,26.22 2.44,17.89 4.69,36.45 0.03,54.14 -0.37,1.4 -0.74,3.79 -1.88,4.59 -6.04,-17.83 -6.19,-36.46 -8.71,-54.89 -0.81,-5.88 -1.84,-11.85 -2.96,-17.68 -0.52,-2.71 -1.87,-11.67 -2.82,-13.5 -0.28,-0.53 -0.42,-0.82 -1.1,-0.82 l -18.49,-1.43 c 2.98,12.01 5.69,24.12 7.53,36.39 2.43,16.15 5.88,35.04 1.12,50.75 -0.21,0.68 0.3,0.85 -0.96,0.7 -6.7,-18.09 -7.33,-37.44 -10.72,-56.25 -1.94,-10.8 -4.64,-21.46 -7.59,-32.01 z m 105.18,115.14 14.18,0.84 0.7,-1.08 c -0.47,-25.25 0.8,-50.7 -0.46,-75.86 -0.23,-4.59 -0.31,-12.49 -1.1,-16.66 -0.12,-0.62 -0.31,-1.24 -0.6,-1.8 l -32.64,-8.63 c -9.04,-1.18 -8.73,8.15 -8.39,14.63 0.41,7.98 1.9,16.4 2.39,24.49 1.11,18.38 1.09,36.85 0.49,55.2 -0.04,1.28 -0.24,6.35 0.2,6.99 l 15.63,0.93 v -24.96 l 9.6,0.48 v 25.44 z m 156.5,5.25 c 0.87,0.84 21.5,-2.87 23.88,-3.67 8.65,-2.9 5.75,-19.14 5.84,-26.32 0.15,-11.98 1.41,-24.49 2.97,-36.39 1.05,-8.04 4.24,-19.43 4.27,-26.97 0.01,-3.26 -1.09,-5.55 -4.68,-4.16 -3.34,1.29 -8.86,5.62 -12.6,7.55 -4.4,2.27 -9.02,4.1 -13.59,5.96 l -0.49,0.62 c -5.7,27.32 -8.25,55.51 -5.58,83.38 z m -114.74,-2.37 v -29.76 l 7.68,0.96 v 29.28 l 13.92,0.96 c 0.59,-0.59 -0.46,-8.78 -0.5,-10.3 -0.18,-6.9 0.76,-15.43 -0.03,-22.05 -0.28,-2.33 -1.56,-5.76 -4.27,-6.06 2.72,-2.34 4.32,-4.22 4.75,-7.97 0.83,-7.23 1.41,-23.5 0.32,-30.45 -1.09,-6.95 -4.45,-8.81 -10.35,-10.77 -8.56,-2.85 -17.63,-4.42 -26.15,-7.45 l 0.23,91.45 0.21,0.75 z m 46.13,-17.23 c 11.65,-0.12 19.43,4.26 20.58,-10.86 0.57,-7.48 0.46,-15.43 0.97,-23.03 0.37,-5.54 2.89,-16.13 0.2,-20.85 -1.33,-2.33 -3.85,-3.26 -6.33,-3.75 -3.96,-0.79 -8.6,-1.02 -12.7,-1.7 -4.52,-0.76 -9.03,-1.85 -13.52,-2.77 -0.51,0.08 -0.74,1.71 -0.78,2.19 -1,11.32 -0.21,23.25 -1.46,34.54 v 45.54 c 0.27,1.14 11.16,0.95 12.98,1.28 -0.1,-4.72 0.11,-9.46 0.02,-14.18 -0.04,-2.14 -1.06,-4.09 0.03,-6.41 z m 42.67,1.63 v -12.72 l 15.31,-1.49 1.01,-18.19 -14.88,1.44 0.93,-11.22 15.8,-2.77 2.95,-17.44 c -5.04,0.61 -10.07,2.08 -15.13,2.63 -2.23,0.24 -12.84,0.36 -13.44,0.96 -1.5,6.87 -2.43,14.28 -3.11,21.37 -1.81,19.04 -1.78,38.31 -0.96,57.36 l 27.36,-0.97 -0.95,-19.2 -13.8,0.87 -1.08,-0.63 z"
 id="path19" />
<path
 class="cls-1"
 d="m 321.7596,53.4085 c -3.82,-0.7 -7.11,-0.78 -10.82,0.47 -2.18,0.73 -4.75,1.61 -4.06,4.34 4.82,-1.31 8.4,-2.45 13.55,-1.79 9.17,1.17 16.46,11.51 20.91,18.93 13.43,22.39 15.44,49.86 5.6,74.05 -14.97,36.79 -55.78,58.09 -94.72,48.91 -0.71,-10.11 -3.98,-17.98 -11.33,-24.91 -1.96,-1.84 -5.61,-3.97 -7.18,-5.78 -1.31,-1.51 -1.41,-3.23 -3.47,-4.69 -5.09,-3.59 -12.04,-2.68 -17.43,-0.31 -4.84,2.12 -6.06,6.15 -10.81,0.72 -1.49,-1.71 -5.7,-8.96 -6.25,-11.03 -1.62,-6.03 6.39,-9.82 10.64,-11.94 1.34,-0.67 2.95,-0.86 4.18,-1.58 8.34,-4.91 2.64,-23.63 -6.22,-23.91 -2.71,-0.09 -15.16,8.56 -16.03,7.66 -1.68,-29.52 13.18,-58.3 37.96,-74.12 29.15,-18.61 68.66,-17.07 95.48,4.99 z m -84.61,-1.33 c -6.71,1.28 -19.32,11.2 -23.88,16.43 -3.48,4 -10.79,15.23 -11.41,20.3 -0.93,7.51 8.99,11.25 13.43,3.79 5.26,-8.86 5.96,-14.09 15.12,-20.88 3.49,-2.58 13.13,-6.54 14.78,-9.22 3.49,-5.67 -1.49,-11.67 -8.03,-10.43 z m 43.33,9.01 c 0.63,-2.7 -1.6,-3.44 -3.71,-4.21 -9.56,-3.51 -18.84,2.03 -23.42,10.44 -1.09,2.01 -4.52,10.86 -3.37,12.5 1.79,2.55 3.19,-3.91 3.68,-4.99 5.36,-11.56 13.28,-19.42 26.81,-13.75 z m 58.08,54.24 c -2.31,-3.1 -4.22,-5.75 -8.36,-6.76 l -0.67,-0.77 -7.28,-40.3 c 3.18,-6.4 -5.89,-4.16 -9.1,-1.81 -10.24,7.51 -7.56,30.18 -4.84,41 -3.36,-0.48 -8.89,-1.72 -10.56,2.16 3.28,-0.53 4.82,-1.06 8.15,0.02 5.71,1.85 7.9,7.23 4.07,12.2 -1.48,1.93 -3.21,2.14 -5.33,2.86 -0.75,0.25 -1.37,-0.42 -1.12,1.01 4.15,0.84 8.89,-1.88 10.19,-5.88 0.47,-1.44 0.12,-2.73 0.82,-3.98 1.95,-3.49 8.59,-4.88 12.26,-4.53 3.01,0.29 9.42,3.32 11.76,5.27 0.18,0.15 0.37,2.28 1.44,1.2 0.15,-0.96 -1.13,-1.25 -1.44,-1.68 z m -50.4,14.4 c 0.33,-0.41 -0.38,-7.57 -0.54,-8.82 -2.07,-16.04 -6.66,-32.54 -9.04,-48.62 0.01,-1.32 2.37,-3.38 -0.75,-3.99 -7.54,-1.47 -12.68,5.56 -14.4,11.97 -2.84,10.53 -0.72,22.87 1.65,33.3 -6.7,3.69 -11.04,10.19 -9.81,18.1 l 1.7,4.29 c -0.64,-11.06 4.85,-22.81 17.79,-20.42 7.8,1.44 9.26,7.89 12.34,13.57 0.3,0.56 -0.02,0.81 1.07,0.61 z m -87.96,-28.69 c -7.03,1.22 -5.67,12.42 1.69,11.78 7.36,-0.64 6.95,-13.29 -1.69,-11.78 z m 72.6,24.85 c 1.78,3.16 3.1,2.79 4.81,4.68 1.54,1.7 3.35,5.51 5.08,7.75 6.94,8.93 16.6,15.17 26.12,5.1 3.68,-3.89 4.13,-8.21 6.5,-12.22 1.18,-2 5,-3.43 5.95,-6.04 -6.09,2.62 -11.58,6.85 -18.21,8.19 -10.6,2.15 -21.27,-2.8 -30.26,-7.94 -0.39,-0.71 -0.96,-2.91 -2.4,-2.16 l 2.4,2.64 z"
 id="path20" />
<path
 class="cls-23"
 d="m 338.0796,173.8885 c 1.1,-1.29 3.68,-5.12 4.54,-5.8 0.43,-0.34 0.68,-0.55 1.23,-0.25 4.1,2.66 8.61,5.4 13.38,6.58 -0.14,2.89 0.64,5.33 2.04,7.8 3.32,5.82 8.16,12.46 15.52,13.28 2.04,0.23 12.98,-0.37 14.64,-0.96 1.75,8.64 2.94,17.31 3.38,26.14 l -0.5,15.14 c -5.25,2.52 -5.17,2.63 -11.06,4.06 -6.4,1.56 -12.09,2.92 -18.7,3.62 -0.62,-24.24 -9.37,-48.61 -23.05,-68.41 -0.41,-0.6 -0.36,-1.42 -1.43,-1.19 z"
 id="path21" />
<path
 class="cls-18"
 d="m 338.0796,173.8885 c 1.07,-0.24 1.02,0.59 1.43,1.19 13.68,19.81 22.43,44.18 23.05,68.41 -6.39,0.67 -11.79,0.82 -18.24,1.92 -2.34,0.56 -1.26,-2.09 -1.5,-3.54 -3.08,-18.49 -10.95,-36.67 -23.94,-50.22 7.05,-5.26 13.27,-10.83 19.2,-17.76 z"
 id="path22" />
<path
 class="cls-9"
 d="m 212.7996,191.6485 c 3.29,1.69 10.61,6.05 4.97,9.53 -4.79,2.95 -21.04,2.88 -20.84,-4.95 0.07,-2.6 2.46,-3.72 1.93,-6.71 -0.13,-0.73 -0.79,-1.24 -0.92,-1.97 -0.34,-1.98 0.39,-6.83 1.65,-8.38 1.36,-1.67 4.76,1.51 6.36,1.83 3.14,0.62 8.66,-4.82 8.77,-7.88 l -0.07,-0.6 c -1.26,-0.7 -3.92,-2.15 -4.75,-3.19 -0.54,-0.67 -0.54,-0.3 0,-0.98 0.75,-0.94 6.3,-3.52 7.66,-3.86 9.06,-2.28 16.13,2.65 12.99,12.27 2.7,1.04 3.26,-4.13 4.55,-3.83 2.92,2.82 6,5.06 8.33,8.48 4.1,6.03 6.73,16.82 4.29,23.81 -0.99,2.84 -4.31,7.82 -7.44,8.4 -9.29,1.71 -17.12,-8.12 -14.3,-16.7 1.63,-4.96 5.69,-5.68 9.36,-2.14 2.07,1.99 2.75,5.02 4.21,7.29 0.3,0.47 -0.05,0.86 1.07,0.62 -0.22,-4.63 1.11,-9.08 2.4,-13.44 -2.15,0.21 -3.74,2.39 -4.33,4.31 h -0.71 c -3.11,-4.59 -8.79,-4.66 -13.2,-1.92 l -1.41,-4.01 c 0.19,-0.63 6.33,-3.63 5.24,-4.63 l -15.35,4.8 c 0,0.79 1.63,0.94 2.16,0.96 1.66,0.08 2.93,-0.25 4.51,-0.45 l 2.44,7.16 c -1.89,-0.77 -3.22,-2.34 -5.18,-3.22 -1.96,-0.88 -3.05,-0.67 -4.42,-1.1 -0.46,-0.14 -2.39,-1.98 -3.84,-1.44 0.67,1.32 2.73,1.34 3.84,1.92 z"
 id="path23" />
<path
 class="cls-23"
 d="m 318.8796,191.6485 c 12.99,13.55 20.86,31.72 23.94,50.22 0.24,1.45 -0.84,4.1 1.5,3.54 -3,0.51 -8.45,-1.93 -11.97,-2.67 -2.37,-0.5 -4.82,-0.68 -7.23,-1.17 1.15,-0.02 1.68,0.45 1.35,-1.1 -1.58,-7.32 -5.66,-14.86 -9.51,-21.22 l -9.6,-9.84 c 0.03,-3.97 -0.09,-7.96 0.08,-11.92 z"
 id="path24" />
<path
 class="cls-12"
 d="m 204.4796,118.3185 c 1.1,-0.1 3.1,1.9 3.77,2.76 2.17,2.77 3.06,7.32 2.59,10.77 -0.73,5.3 -4.06,4.32 -7.96,5.95 -7.78,3.26 -14.59,10.37 -10.95,19.28 1.72,4.2 7.68,8.94 11.32,11.72 1.62,1.24 7.86,4.25 7.58,6.17 -0.42,2.79 -3.88,3.75 -6.34,2.67 -4.9,-2.14 -17.92,-12.28 -21.45,-16.47 -11.88,-14.15 -1.11,-29.36 11.76,-37.71 1.45,-0.94 8.53,-5.06 9.69,-5.16 z"
 id="path25" />
<path
 class="cls-16"
 d="m 303.0396,199.8085 v 36.72 l -0.78,0.68 c -2.2,-1.25 -5.9,0.42 -7.51,-0.04 -0.6,-0.17 -1.22,-1.08 -1.93,-1.46 -2.42,-1.26 -4.98,-2.29 -7.3,-3.74 l -0.27,-27.14 0.61,-0.85 z"
 id="path26" />
<path
 class="cls-25"
 d="m 384.1596,153.7285 c 0.09,0.02 0.29,0.39 0.48,0.48 -5.13,4.22 -5.51,8.5 -1.92,13.92 -4.04,-0.69 -9.46,-1.91 -12.49,1.67 -2.52,2.99 -1.74,7.04 0.95,9.62 1.64,1.58 4.51,2.22 5.75,3.37 0.95,0.88 0.95,2.29 1.82,3.12 0.41,0.39 3.66,2.19 3.97,1.9 0.25,-1.34 -1.64,-1.69 -1.81,-2.7 -0.08,-0.5 0.52,-1.36 0.37,-1.59 -0.14,-0.2 -3.6,-1.48 -4.47,-2.04 -9.79,-6.2 -5.86,-15.23 4.97,-9.77 5.15,2.6 10.35,9.01 10.51,14.96 0.07,2.41 -3.16,5.78 -5.55,5.93 -1.03,0.06 -1.87,-0.47 -2.77,-0.42 -6.67,0.36 -9.51,1.31 -15.33,-3.01 -9.12,-6.77 -3.3,-21.82 6.39,-24.88 -0.22,-1.12 -3.49,-0.13 -3.84,-0.48 0.58,-7.03 5.89,-11.35 12.96,-10.08 z"
 id="path27" />
<path
 class="cls-18"
 d="m 307.3596,209.4085 9.6,9.84 c 3.84,6.36 7.93,13.9 9.51,21.22 0.33,1.55 -0.19,1.08 -1.35,1.1 -4.77,-0.97 -9.13,-1.75 -13.92,-2.88 -0.9,-1.77 -1.72,-5.14 -3.84,-5.76 -0.1,-7.82 -0.06,-15.7 0,-23.52 z"
 id="path28" />
<polygon
 class="cls-12"
 points="282.24,218.88 282.24,240 264.96,234 264.96,217.44 "
 id="polygon28"
 transform="translate(-12.32043,-13.3115)" />
<path
 class="cls-2"
 d="m 356.7996,134.5285 c 1.09,-0.04 1.28,0.67 1.83,1.29 4.39,4.91 8.01,10.23 11.7,15.66 0.51,0.75 1.26,2.36 2.31,2.25 -3,1.84 -6.04,3.62 -8.87,5.75 -1.19,0.03 -10.91,-6.18 -11.53,-7.19 -0.83,-1.34 1.85,-7.2 2.4,-9.12 0.79,-2.78 1.64,-5.82 2.16,-8.64 z"
 id="path29" />
<path
 class="cls-25"
 d="m 404.3196,180.1285 c 0.74,-4.21 -1.27,-7.57 -1.44,-11.52 1.72,-0.45 1.29,0.86 2.39,1.44 0.38,-4.29 -0.11,-15.71 4.83,-17.5 2.76,-1 3.91,0.36 5.16,2.47 4.94,8.34 -2.2,22.15 -10.94,25.1 z"
 id="path30" />
<path
 class="cls-25"
 d="m 394.7196,185.4085 c 0.19,-3.08 -1.07,-6.07 -2.68,-8.6 -2.47,-3.85 -4.35,-3.03 -3.34,-8.71 1.01,-5.68 5.51,-8.31 9.58,-3.29 4.96,6.11 5.59,18.44 -3.56,20.6 z"
 id="path31" />
<path
 class="cls-16"
 d="m 350.3296,154.6885 11.25,7.02 -4.11,8.32 c -1.16,0.35 -11.36,-5.15 -11.66,-6.05 -0.46,-1.4 3.83,-7.46 4.52,-9.28 z"
 id="path32" />
<path
 class="cls-10"
 d="m 384.1596,153.7285 c 7.07,-6.95 18.31,-3.14 15.11,7.67 -0.95,1.37 -2.4,-1.46 -3.93,-1.81 -4.71,-1.08 -7.99,1.86 -9.27,6.14 -2.92,-0.39 -2.95,-4.28 -1.85,-6.42 0.36,-0.7 4,-4.31 4.77,-4.83 1.93,-1.32 4.15,-1.16 5.73,-2.67 -3.46,-0.23 -7.33,0.13 -10.08,2.4 -0.19,-0.09 -0.39,-0.46 -0.48,-0.48 z"
 id="path33" />
<path
 class="cls-2"
 d="m 280.4796,207.9685 c 0.16,5.56 0.07,11.23 0,16.8 l -5.76,-1.92 c -0.06,-5.46 -0.26,-11.38 0,-16.8 z"
 id="path34" />
<path
 class="cls-24"
 d="m 193.5996,194.5285 c -0.79,5.34 2.39,9 7.2,10.56 -0.55,0.61 -1.22,0.45 -1.92,0.48 -0.48,0.02 -0.96,-0.01 -1.44,0 h -0.48 c -1.14,0.06 -4.83,0.53 -5.39,0.39 -1,-0.24 -2.32,-1.87 -3.39,-2.41 -1.62,-0.82 -3.88,-1.63 -5.62,-2.3 3.41,-2.54 7.14,-4.99 11.04,-6.72 z"
 id="path35" />
<path
 class="cls-10"
 d="m 222.3996,201.7285 c -0.26,4.08 2.05,7.58 4.56,10.56 0.99,1.18 3.52,2.1 2.33,3.39 -4.46,4.85 -14.39,-9.21 -13.09,-11.04 l 6.2,-2.92 z"
 id="path36" />
<path
 class="cls-10"
 d="m 219.0296,216.5985 c -7.04,4.05 -12.43,-4.8 -11.99,-11.02 l 5.28,0.22 6.71,10.81 z"
 id="path37" />
<path
 class="cls-24"
 d="m 333.7596,334.6885 c 0.3,1.26 0.84,2.88 1.52,4 0.82,1.36 2.35,2.42 3.28,3.68 h -12.96 c 0.19,-1.53 1.72,-2.16 2.5,-3.51 0.45,-0.78 0.64,-1.4 0.86,-2.25 z"
 id="path38" />
<path
 class="cls-2"
 d="m 328.9596,336.6085 c 1.05,-4.17 0.21,-8.69 0.48,-12.96 l 3.35,-0.48 c -0.03,3.75 0.11,7.85 0.96,11.52 l -4.8,1.92 z"
 id="path39" />
<path
 class="cls-13"
 d="m 368.3196,160.4485 c 0.74,4.99 -3.23,6.36 -5.06,10.06 -0.7,1.41 -1.07,2.8 -1.45,4.31 -0.29,1.16 0.33,3.31 -1.17,2.9 -0.57,-5.67 0.75,-10.61 4.55,-14.88 0.36,-0.41 2.66,-2.94 3.12,-2.39 z"
 id="path40" />
<path
 class="cls-24"
 d="m 280.4796,224.7685 c -0.02,1.75 0.02,3.52 0,5.28 l -5.71,-1.49 c -0.12,-1.89 -0.03,-3.81 -0.05,-5.71 z"
 id="path41" />
<path
 class="cls-7"
 d="m 384.6396,343.3285 c 0.48,0.39 -4.31,5.19 -3.36,6.72 -0.65,0.75 -2.1,-2.31 -2.63,-2.89 -0.92,-1.02 -3.68,-2.14 -2.04,-2.97 2.89,-1.47 4.93,-1.21 8.03,-0.85 z"
 display="none"
 id="path42" />
<path
 class="cls-2"
 d="m 244.9596,219.4885 -5.28,-2.87 c 3.03,0.45 5.63,-3.07 7.44,-3.84 0.98,-0.41 0.68,0.67 0.71,1.19 0.1,1.39 0.08,3.17 0,4.57 h -2.88 v 0.96 z"
 id="path43" />
<path
 class="cls-24"
 d="m 114.3996,331.3285 c 1.07,1.41 3.88,3.29 5.28,4.56 -1.58,0.29 -3.21,0.4 -4.8,0.72 z"
 id="path44" />
<path
 class="cls-2"
 d="m 311.1996,238.6885 c -0.64,-0.15 -3.66,-0.35 -3.81,-0.5 -0.07,-1.75 0,-3.51 -0.03,-5.26 2.12,0.62 2.94,3.99 3.84,5.76 z"
 id="path45" />
<path
 class="cls-3"
 d="m 403.8396,156.6085 c -0.63,2.7 -0.45,6.04 -0.45,8.82 l -2.43,0.78 c -1.02,-2.03 0.63,-2.36 1.31,-4.21 0.61,-1.64 0.73,-3.66 0.61,-5.39 z"
 id="path46" />
<path
 class="cls-24"
 d="m 274.7196,206.0485 c 0.02,-0.32 -0.02,-0.64 0,-0.96 l 5.76,-0.48 c 0.03,1.12 -0.03,2.24 0,3.36 z"
 id="path47" />
<path
 class="cls-1"
 d="m 302.5596,343.8085 h 4.8 c 0.24,1.12 -0.15,0.77 -0.61,1.08 -1.95,1.27 -3.48,0.92 -4.66,-1.08 h 0.48 z"
 id="path48" />
<path
 class="cls-24"
 d="m 247.8396,218.5285 c -0.04,0.64 0.03,1.28 0,1.92 l -2.88,-0.96 v -0.96 z"
 id="path49" />
<path
 class="cls-1"
 d="m 190.7196,334.2085 -3.84,-0.23 c 1.29,-1.4 2.95,-1.75 3.84,0.23 z"
 id="path50" />
<path
 class="cls-7"
 d="m 212.7996,191.1685 v 0.48 c -1.11,-0.57 -3.17,-0.59 -3.84,-1.92 1.45,-0.54 3.38,1.29 3.84,1.44 z"
 id="path51" />
<path
 class="cls-2"
 d="m 200.7996,205.0885 c 0.62,0.2 2.71,-0.21 2.88,0.96 l -4.8,-0.48 c 0.7,-0.03 1.37,0.13 1.92,-0.48 z"
 id="path52" />
<path
 class="cls-16"
 d="m 382.7196,168.1285 c 0.87,0.15 2.75,0 2.4,1.44 -2.23,0.2 -1.85,-0.61 -2.4,-1.44 z"
 id="path53" />
<polygon
 class="cls-2"
 points="314.88,357.12 314.4,357.12 313.44,356.64 "
 id="polygon53"
 transform="translate(-12.32043,-13.3115)" />
<path
 class="cls-2"
 d="m 196.9596,205.5685 h 0.48 z"
 id="path54" />
<path
 class="cls-7"
 d="m 378.8196,122.4685 -2.77,1.82 2.34,5.69 -2.37,3.32 3.81,11.78 c -6.87,-5.29 -13.6,-10.98 -18.65,-18.09 l 2.83,-3.26 -3.85,-6.27 c -0.18,-1.38 2.36,-0.62 2.82,-1.96 l -0.41,-11.21 c 0.3,-0.35 3.17,2.05 3.58,2.41 4.65,3.99 8.17,10 12.49,14.39 z m -2.88,7.68 -3.31,-6.92 c 0.04,-1.69 3.24,-1.18 2.7,-3.12 -0.73,-2.65 -8.09,-8.99 -10.37,-11.02 l 1.72,9.15 c -0.53,0.69 -2.77,0.14 -2.63,1.58 l 3.31,5.85 c -0.02,1.45 -2.1,1.17 -2.88,1.89 2.02,2.14 7.53,9.79 9.84,10.8 0.57,0.25 0.91,-0.08 0.69,-0.68 l -1.84,-5.71 2.78,-1.81 z m -0.66,8.7 0.5581,-0.5932 c 0.31,-0.16 -0.2481,0.7532 -0.5581,0.5932 z"
 id="path55" />
<path
 class="cls-14"
 d="m 420.6396,127.3285 -4.3,-1.42 -2.18,6.71 c -1.01,1.27 -3.43,-0.62 -4.5,0.07 l -3.42,6.17 c -0.42,-5.36 0.81,-10.56 1.44,-15.84 l 3.83,1.44 1.93,-7.2 3.78,1.39 5.33,-7.62 -1.92,16.32 z"
 id="path56" />
<path
 class="cls-14"
 d="m 398.0796,116.7685 h -4.32 l 0.96,8.16 -3.79,0.53 -1,7.63 c -1.15,-4.31 -4.58,-9.72 -4.81,-14.16 -0.08,-1.47 2.59,-0.42 3.37,-0.72 l -0.96,-8.16 3.32,0.44 1.95,-9.56 5.28,15.83 z"
 id="path57" />
<path
 class="cls-27"
 d="m 156.1096,457.9785 -12.43,9.19 c -9.83,-21.93 -17.78,-44.77 -21.93,-68.55 -2.78,-15.89 -3.8,-31.98 -4.47,-48.09 7.61,-0.35 15.21,-1.47 22.81,-1.91 4,-0.23 10.15,-0.87 13.91,-0.48 6.08,0.63 8.82,5.61 9.36,11.28 0.74,7.69 0.33,16.17 0.97,23.99 0.72,8.82 4.37,23.65 3.23,31.56 -1.53,10.62 -14.68,9.09 -21.84,13.54 l 10.4,29.47 z m -9.07,-86.81 c -3.71,-0.21 -7.36,0.54 -11.01,0.99 l 3.33,30.7 10.59,-2.21 z"
 id="path58" />
<path
 class="cls-22"
 d="m 220.8796,348.2085 16.16,38.32 -1.2,-37.44 14.88,0.48 c 0.25,30.52 3.34,61 10.07,90.72 l -13.32,-1.56 c -7.67,-13.36 -15.3,-26.78 -21.96,-40.68 -0.86,0.02 1.09,13.28 1.28,14.56 1.27,8.67 3.1,17.27 5.2,25.76 l -15.31,0.44 c -1.65,-7.12 -3.43,-14.25 -4.7,-21.46 -4.01,-22.84 -4.79,-46.16 -4.74,-69.24 0.98,-1.41 11.41,0.48 13.63,0.11 z"
 id="path59" />
<path
 class="cls-27"
 d="m 311.0396,444.4485 c -0.39,0.41 -2.03,1.38 -2.58,1.5 -11.25,-0.56 -22.44,-3.1 -33.68,-4.28 -7.15,-29.77 -10.84,-60.45 -11.11,-91.14 l 27.97,2.04 c 6.47,1.52 8.07,8.39 8.94,14.1 0.87,5.71 3.2,22.54 2.24,27.09 -0.36,1.73 -1.37,2.92 -2.66,4.05 1.87,1.47 3.27,2.55 4.4,4.71 2,3.83 7.52,27.86 8.02,32.79 0.27,2.7 0.43,7.07 -1.54,9.14 z m -23.85,-71.83 -8.16,-0.49 1.24,13.5 8.36,0.9 z m 7.21,50.39 -2.61,-15.39 -8.43,-0.93 2.47,15.3 z"
 id="path60" />
<path
 class="cls-22"
 d="m 345.7596,355.3285 c 4.02,33.95 14.25,66.82 26.88,98.4 l -15.76,-1.04 -9.65,-28.03 -9.63,-0.69 8.64,27.35 -15.64,-1.87 c -6.33,-18.49 -11.06,-37.78 -14.44,-57.08 -1.33,-7.62 -5.05,-26.07 -3.3,-32.76 0.77,-2.92 2.26,-4.67 5.35,-5.21 l 27.56,0.92 z m -10.08,20.16 h -8.64 l 4.82,25.9 9.1,0.5 z"
 id="path61" />
<path
 class="cls-11"
 d="m 369.2796,354.8485 c 3.66,25.36 11.75,49.82 21.36,73.44 0.65,0.78 2.78,0.53 3.84,0.47 2.06,-0.12 13.95,-2.24 14.57,-1.84 l 12.07,22.96 c -5.57,1.13 -11.38,2.28 -17.04,2.88 -3.99,0.42 -8.96,0.83 -12.94,0.98 -1.44,0.05 -4.18,0.4 -5.02,-0.78 -13.66,-31.15 -24.66,-63.76 -29.32,-97.64 l 12.48,-0.48 z"
 id="path62" />
<path
 class="cls-11"
 d="m 405.7596,351.0085 c 4.93,24.57 14.47,48.3 27.59,69.49 l 16.24,-6.55 14.73,17.94 c -9.29,6.86 -20.23,11.3 -31.17,14.93 l -0.72,-0.28 c -18.24,-28.61 -32.06,-60.16 -38.66,-93.61 l 12,-1.93 z"
 id="path63" />
<path
 class="cls-11"
 d="m 193.1196,347.1685 0.46,28.58 c 1.34,21.57 3.95,43.12 10.08,63.86 l -0.78,1.08 -13.33,2.5 c -5.3,-16.06 -9.03,-32.88 -10.77,-49.76 -1.33,-12.86 -1.12,-25.06 -1.48,-37.88 -0.07,-2.52 -1.51,-6.12 0.22,-8.38 z"
 id="path64" />
<path
 class="cls-21"
 d="m 122.4996,210.9085 c 2.95,10.55 5.65,21.21 7.59,32.01 3.39,18.81 4.01,38.16 10.72,56.25 1.27,0.15 0.76,-0.03 0.96,-0.7 4.76,-15.71 1.31,-34.59 -1.12,-50.75 -1.84,-12.26 -4.55,-24.38 -7.53,-36.39 l 18.49,1.43 c 0.69,0 0.82,0.29 1.1,0.82 0.95,1.83 2.3,10.79 2.82,13.5 1.12,5.83 2.15,11.8 2.96,17.68 2.53,18.43 2.67,37.06 8.71,54.89 1.14,-0.8 1.51,-3.2 1.88,-4.59 4.66,-17.69 2.4,-36.24 -0.03,-54.14 -1.2,-8.78 -2.77,-17.59 -4.73,-26.22 l 17.43,2.49 0.94,0.98 c 2.12,12.59 4.12,25.31 5.15,38.05 0.96,11.99 1.65,23.99 -0.62,35.85 -2.1,11.02 -6.73,21.44 -11.46,31.5 l -16.73,-0.15 -4.55,-11.29 -4.87,11.44 -17.12,0.58 c -5.92,-12.04 -11.51,-24.61 -14.69,-37.73 -2.56,-10.56 -3.18,-21.3 -4.97,-31.99 -2.44,-14.56 -6.21,-28.9 -10.89,-42.88 l 0.7,-0.7 c 6.68,-0.53 13.17,0.05 19.87,0.06 z"
 id="path65" />
<path
 class="cls-27"
 d="m 227.6796,326.0485 v -25.44 l -9.6,-0.48 v 24.96 l -15.63,-0.93 c -0.44,-0.64 -0.25,-5.71 -0.2,-6.99 0.6,-18.35 0.62,-36.82 -0.49,-55.2 -0.49,-8.09 -1.98,-16.51 -2.39,-24.49 -0.34,-6.48 -0.65,-15.81 8.39,-14.63 l 32.64,8.63 c 0.29,0.56 0.48,1.18 0.6,1.8 0.79,4.17 0.87,12.07 1.1,16.66 1.27,25.16 0,50.61 0.46,75.86 l -0.7,1.08 -14.18,-0.84 z m -0.96,-74.88 -10.08,-1.44 1.44,28.32 9.6,0.96 z"
 id="path66" />
<path
 class="cls-22"
 d="m 269.4396,328.9285 -14.19,-1.41 -0.21,-0.75 -0.23,-91.45 c 8.52,3.03 17.59,4.6 26.15,7.45 5.89,1.96 9.3,4.11 10.35,10.77 1.05,6.66 0.52,23.22 -0.32,30.45 -0.43,3.74 -2.03,5.63 -4.75,7.97 2.71,0.3 3.99,3.73 4.27,6.06 0.79,6.61 -0.14,15.14 0.03,22.05 0.04,1.52 1.09,9.71 0.5,10.3 l -13.92,-0.96 v -29.28 l -7.68,-0.96 z m 8.16,-66.72 -8.16,-1.44 v 18.24 l 8.16,1.44 z"
 id="path67" />
<path
 class="cls-11"
 d="m 384.1796,331.2985 c -2.67,-27.87 -0.12,-56.05 5.58,-83.38 l 0.49,-0.62 c 4.58,-1.86 9.2,-3.69 13.59,-5.96 3.74,-1.93 9.26,-6.26 12.6,-7.55 3.59,-1.39 4.69,0.9 4.68,4.16 -0.03,7.54 -3.22,18.93 -4.27,26.97 -1.55,11.9 -2.82,24.41 -2.97,36.39 -0.09,7.18 2.82,23.43 -5.84,26.32 -2.38,0.8 -23.01,4.51 -23.88,3.67 z m 22.06,-71.97 -7.6,3.2 c -2.37,15.65 -3.89,31.35 -3.43,47.2 l 7.17,-1.46 c -0.23,-16.42 1.85,-32.7 3.86,-48.94 z"
 id="path68" />
<path
 class="cls-22"
 d="m 315.5696,311.6985 c -1.09,2.32 -0.07,4.27 -0.03,6.41 0.1,4.72 -0.11,9.47 -0.02,14.18 -1.82,-0.33 -12.72,-0.14 -12.98,-1.28 v -45.54 c 1.25,-11.3 0.45,-23.23 1.46,-34.54 0.04,-0.47 0.27,-2.11 0.78,-2.19 4.49,0.92 9,2.02 13.52,2.77 4.09,0.68 8.73,0.91 12.7,1.7 2.48,0.49 5,1.42 6.33,3.75 2.69,4.72 0.17,15.31 -0.2,20.85 -0.51,7.59 -0.4,15.55 -0.97,23.03 -1.15,15.12 -8.94,10.74 -20.58,10.86 z m 8.11,-18.29 1.39,-22.73 -0.75,-0.72 -7.85,-0.55 -0.96,23.52 z"
 id="path69" />
<path
 class="cls-11"
 d="m 358.2396,313.3285 1.08,0.63 13.8,-0.87 0.95,19.2 -27.36,0.97 c -0.82,-19.05 -0.85,-38.32 0.96,-57.36 0.68,-7.1 1.6,-14.5 3.11,-21.37 0.6,-0.59 11.22,-0.71 13.44,-0.96 5.06,-0.55 10.1,-2.01 15.13,-2.63 l -2.95,17.44 -15.8,2.77 -0.93,11.22 14.88,-1.44 -1.01,18.19 -15.31,1.49 v 12.72 z"
 id="path70" />
<path
 class="cls-4"
 d="m 288.1596,129.7285 c -1.09,0.2 -0.77,-0.05 -1.07,-0.61 -3.08,-5.68 -4.55,-12.13 -12.34,-13.57 -12.94,-2.39 -18.43,9.36 -17.79,20.42 l -1.7,-4.29 c -1.23,-7.91 3.11,-14.41 9.81,-18.1 -2.37,-10.44 -4.48,-22.78 -1.65,-33.3 1.73,-6.41 6.86,-13.44 14.4,-11.97 3.12,0.61 0.76,2.67 0.75,3.99 2.38,16.07 6.98,32.58 9.04,48.62 0.16,1.24 0.87,8.41 0.54,8.82 z m -4.32,-12 -7.67,-44.88 -0.79,-1.14 c -3.4,-0.46 -7.02,1.74 -7.37,5.22 6.64,1.08 7.76,8.18 9.16,13.69 -0.22,1.51 -6.65,9.47 -5.8,10.31 1.61,0.17 6.46,-3.52 7.46,-1.94 l 2.35,16.38 2.67,2.35 z"
 id="path71" />
<path
 class="cls-4"
 d="m 338.5596,115.3285 v 0.48 c -2.35,-1.95 -8.75,-4.98 -11.76,-5.27 -3.67,-0.36 -10.31,1.03 -12.26,4.53 -0.7,1.25 -0.35,2.54 -0.82,3.98 -1.3,4 -6.04,6.73 -10.19,5.88 -0.25,-1.43 0.38,-0.76 1.12,-1.01 2.12,-0.71 3.84,-0.93 5.33,-2.86 3.83,-4.97 1.64,-10.34 -4.07,-12.2 -3.33,-1.08 -4.87,-0.55 -8.15,-0.02 1.67,-3.88 7.2,-2.64 10.56,-2.16 -2.72,-10.81 -5.4,-33.49 4.84,-41 3.21,-2.35 12.28,-4.6 9.1,1.81 l 7.28,40.3 0.67,0.77 c 4.15,1.01 6.05,3.66 8.36,6.76 z m -11.52,-7.68 -7.29,-39.98 c -1.37,-2.58 -8.01,1.16 -8.07,3.98 7.05,0.88 7.76,8.61 9.5,14.1 l -6.14,9.91 7.23,-2.2 2.37,14.2 h 2.4 z"
 id="path72" />
<path
 class="cls-26"
 d="m 237.1496,52.0785 c 6.54,-1.24 11.52,4.76 8.03,10.43 -1.65,2.68 -11.29,6.64 -14.78,9.22 -9.16,6.79 -9.86,12.02 -15.12,20.88 -4.43,7.46 -14.35,3.72 -13.43,-3.79 0.63,-5.07 7.93,-16.31 11.41,-20.3 4.56,-5.23 17.17,-15.16 23.88,-16.43 z"
 id="path73" />
<path
 class="cls-5"
 d="m 272.7996,125.4085 c 8.99,5.14 19.67,10.09 30.26,7.94 6.63,-1.34 12.12,-5.57 18.21,-8.19 -0.96,2.61 -4.77,4.05 -5.95,6.04 -2.37,4 -2.82,8.33 -6.5,12.22 -9.53,10.07 -19.18,3.83 -26.12,-5.1 -1.73,-2.23 -3.54,-6.04 -5.08,-7.75 -1.71,-1.9 -3.03,-1.52 -4.81,-4.68 -0.07,-0.12 0.07,-0.36 0,-0.48 z m 38.88,7.68 -9.05,2.94 -1.02,6.17 c 5.59,-0.48 9.12,-3.6 10.08,-9.11 z m -12.96,3.36 -12.96,-1.92 c 1.53,6.05 6.07,7.92 11.95,7.62 z"
 id="path74" />
<path
 class="cls-5"
 d="m 280.4796,61.0885 c -13.53,-5.67 -21.45,2.19 -26.81,13.75 -0.5,1.08 -1.89,7.53 -3.68,4.99 -1.16,-1.65 2.27,-10.49 3.37,-12.5 4.58,-8.41 13.86,-13.95 23.42,-10.44 2.11,0.77 4.34,1.51 3.71,4.21 z"
 id="path75" />
<path
 class="cls-26"
 d="m 200.1996,101.0385 c 8.64,-1.51 9.15,11.14 1.69,11.78 -7.46,0.64 -8.72,-10.56 -1.69,-11.78 z"
 id="path76" />
<path
 class="cls-7"
 d="m 272.7996,125.4085 c 0.07,0.12 -0.07,0.36 0,0.48 l -2.4,-2.64 c 1.44,-0.75 2.01,1.45 2.4,2.16 z"
 id="path77" />
<path
 class="cls-7"
 d="m 338.5596,115.3285 c 0.32,0.42 1.6,0.71 1.44,1.68 -1.07,1.08 -1.26,-1.05 -1.44,-1.2 z"
 id="path78" />
<path
 class="cls-14"
 d="m 375.9396,130.1485 -2.78,1.81 1.84,5.71 c 0.23,0.6 -0.12,0.93 -0.69,0.68 -2.31,-1.01 -7.82,-8.65 -9.84,-10.8 0.79,-0.72 2.86,-0.45 2.88,-1.89 l -3.31,-5.85 c -0.14,-1.44 2.1,-0.88 2.63,-1.58 l -1.72,-9.15 c 2.28,2.03 9.64,8.37 10.37,11.02 0.54,1.95 -2.67,1.43 -2.7,3.12 l 3.31,6.92 z"
 id="path79" />
<path
 class="cls-8"
 d="m 147.0396,371.1685 2.91,29.48 -10.59,2.21 -3.33,-30.7 c 3.66,-0.45 7.31,-1.2 11.01,-0.99 z"
 id="path80" />
<polygon
 class="cls-8"
 points="306.72,436.32 298.15,435.3 295.68,420 304.11,420.93 "
 id="polygon80"
 transform="translate(-12.32043,-13.3115)" />
<polygon
 class="cls-8"
 points="299.51,385.93 300.96,399.84 292.6,398.93 291.36,385.44 "
 id="polygon81"
 transform="translate(-12.32043,-13.3115)" />
<polygon
 class="cls-8"
 points="348,388.8 353.28,415.2 344.18,414.7 339.36,388.8 "
 id="polygon82"
 transform="translate(-12.32043,-13.3115)" />
<polygon
 class="cls-8"
 points="239.04,264.48 240,292.32 230.4,291.36 228.96,263.04 "
 id="polygon83"
 transform="translate(-12.32043,-13.3115)" />
<polygon
 class="cls-8"
 points="289.92,275.52 289.92,293.76 281.76,292.32 281.76,274.08 "
 id="polygon84"
 transform="translate(-12.32043,-13.3115)" />
<path
 class="cls-8"
 d="m 406.2396,259.3285 c -2.01,16.23 -4.09,32.51 -3.86,48.94 l -7.17,1.46 c -0.46,-15.85 1.07,-31.56 3.43,-47.2 z"
 id="path84" />
<polygon
 class="cls-8"
 points="328.8,282.72 336.65,283.27 337.39,283.99 336,306.72 327.84,306.24 "
 id="polygon85"
 transform="translate(-12.32043,-13.3115)" />
<path
 class="cls-13"
 d="m 283.8396,117.7285 -2.67,-2.35 -2.35,-16.38 c -1,-1.58 -5.84,2.11 -7.46,1.94 -0.84,-0.84 5.59,-8.8 5.8,-10.31 -1.4,-5.51 -2.53,-12.61 -9.16,-13.69 0.36,-3.48 3.98,-5.68 7.37,-5.22 l 0.79,1.14 7.67,44.88 z"
 id="path85" />
<path
 class="cls-13"
 d="m 327.0396,107.6485 h -2.4 l -2.37,-14.2 -7.23,2.2 6.14,-9.91 c -1.74,-5.49 -2.45,-13.22 -9.5,-14.1 0.06,-2.82 6.7,-6.56 8.07,-3.98 l 7.29,39.98 z"
 id="path86" />
<path
 class="cls-10"
 d="m 298.7196,136.4485 -1.01,5.7 c -5.88,0.3 -10.42,-1.58 -11.95,-7.62 z"
 id="path87" />
<path
 class="cls-10"
 d="m 311.6796,133.0885 c -0.95,5.52 -4.49,8.63 -10.08,9.11 l 1.02,-6.17 9.05,-2.94 z"
 id="path88" />
</svg>
